<?xml version="1.0" standalone="no"?>
<!DOCTYPE svg PUBLIC "-//W3C//DTD SVG 20010904//EN"
 "http://www.w3.org/TR/2001/REC-SVG-20010904/DTD/svg10.dtd">
<svg version="1.0" xmlns="http://www.w3.org/2000/svg"
 width="732.000000pt" height="732.000000pt" viewBox="0 0 732.000000 732.000000"
 preserveAspectRatio="xMidYMid meet">
<metadata>
Created by potrace 1.14, written by Peter Selinger 2001-2017
</metadata>
<g transform="translate(0.000000,732.000000) scale(0.100000,-0.100000)"
fill="#000000" stroke="none">
<path d="M3140 6480 c-29 -7 -29 -2 -5 -340 13 -193 15 -250 8 -250 -4 0 -89
28 -188 61 -99 33 -184 62 -190 63 -5 1 -15 5 -21 8 -6 4 -22 9 -36 12 -15 2
-37 10 -50 17 -12 7 -23 11 -23 10 0 -1 -7 0 -15 3 -8 2 -46 15 -85 27 -38 13
-73 23 -77 24 -3 0 -10 3 -14 8 -4 4 -15 7 -24 7 -13 0 -16 -8 -15 -37 1 -21
6 -96 10 -168 4 -71 8 -157 10 -190 2 -33 7 -107 10 -165 8 -132 11 -170 17
-176 4 -4 154 -51 188 -59 8 -2 16 -4 18 -5 1 -2 7 -4 12 -5 6 -1 12 -4 15 -5
3 -1 8 -3 13 -4 27 -8 106 -31 157 -46 33 -10 107 -33 165 -50 58 -17 119 -36
136 -41 29 -9 31 -12 34 -67 3 -70 7 -127 9 -127 1 0 4 -43 7 -95 7 -115 9
-156 19 -280 4 -52 9 -115 10 -140 6 -88 16 -206 20 -247 5 -46 1 -49 -42 -31
-15 6 -32 12 -38 14 -10 2 -183 73 -235 96 -34 15 -52 22 -155 64 -49 20 -103
42 -120 49 -16 7 -55 22 -85 34 -59 24 -75 30 -130 54 -19 9 -53 23 -76 32
-41 16 -41 16 -38 63 1 26 6 193 9 372 4 179 9 328 11 331 7 12 -19 25 -131
68 -60 24 -128 51 -150 61 -22 9 -51 21 -65 25 -14 4 -38 13 -55 21 -16 7 -60
25 -97 39 -38 14 -97 36 -132 49 l-64 25 3 -387 c1 -213 1 -390 -1 -393 -3 -6
-163 54 -271 102 -24 11 -47 19 -52 19 -5 0 -22 6 -38 14 -15 8 -48 22 -73 31
-25 10 -54 21 -65 25 -51 20 -55 20 -61 -8 -4 -15 -9 -31 -13 -37 -3 -5 -6
-14 -7 -20 -1 -5 -34 -107 -72 -225 -39 -118 -84 -260 -102 -315 -17 -55 -38
-116 -45 -135 -13 -35 -44 -126 -48 -145 -1 -5 -6 -16 -10 -22 -5 -7 -6 -13
-3 -13 3 0 -1 -19 -9 -41 -20 -56 -20 -56 23 -64 52 -11 52 -11 102 -25 25 -7
52 -14 60 -15 8 -2 78 -20 155 -40 77 -20 154 -39 170 -42 47 -7 49 -17 13
-64 -18 -24 -76 -102 -128 -174 -52 -71 -98 -134 -103 -140 -4 -5 -39 -53 -77
-105 -38 -52 -73 -99 -77 -105 -18 -23 -44 -67 -41 -69 3 -2 362 -93 398 -101
8 -2 61 -15 118 -30 56 -14 114 -29 129 -31 14 -3 34 -9 43 -14 14 -7 24 -1
49 30 17 21 31 43 31 49 0 5 4 11 9 13 4 2 21 23 37 47 41 63 52 79 117 172
32 46 87 127 123 179 89 129 101 142 124 135 11 -4 30 -8 42 -11 13 -2 34 -7
48 -10 14 -3 43 -10 65 -15 22 -5 51 -12 65 -15 14 -3 32 -7 40 -9 8 -2 15 -4
15 -5 0 -1 7 -3 15 -5 8 -2 26 -6 40 -9 14 -3 45 -10 70 -16 25 -5 99 -23 165
-40 66 -17 129 -32 140 -34 32 -5 129 -27 145 -33 8 -3 24 -8 35 -9 45 -8 65
-15 65 -22 0 -4 -12 -21 -27 -38 -16 -16 -46 -52 -68 -79 -22 -26 -44 -53 -50
-59 -27 -30 -84 -97 -120 -141 -22 -27 -44 -53 -50 -60 -5 -6 -35 -40 -65 -75
-30 -36 -59 -70 -65 -76 -5 -6 -25 -29 -43 -52 -19 -23 -44 -52 -55 -65 -27
-29 -90 -106 -98 -120 -4 -5 -49 6 -110 28 -57 20 -108 38 -114 39 -5 2 -17 6
-25 9 -25 9 -161 57 -225 78 -33 11 -67 23 -75 26 -8 3 -19 7 -25 9 -5 2 -43
14 -82 29 -80 28 -96 25 -126 -24 -9 -14 -32 -44 -51 -65 -20 -22 -36 -42 -36
-45 0 -3 -17 -25 -38 -47 -20 -23 -44 -50 -52 -61 -38 -47 -106 -129 -118
-141 -7 -8 -25 -30 -40 -50 -15 -21 -39 -50 -54 -67 -16 -16 -28 -34 -28 -40
0 -5 33 -20 73 -33 39 -12 122 -38 182 -58 61 -19 162 -51 225 -70 63 -19 122
-38 130 -41 21 -9 19 -8 73 -23 26 -7 49 -15 51 -19 4 -5 -99 -136 -197 -251
-101 -118 -167 -201 -167 -209 0 -5 12 -17 27 -27 15 -9 32 -21 38 -26 15 -13
131 -97 210 -153 39 -27 75 -53 80 -57 48 -38 89 -68 94 -68 3 0 17 -10 31
-23 14 -12 38 -31 55 -41 16 -11 34 -23 40 -28 5 -5 39 -30 75 -56 36 -25 67
-49 70 -53 3 -3 20 -14 38 -24 17 -11 32 -23 32 -27 0 -4 7 -8 15 -8 8 0 15
-3 15 -8 0 -4 12 -15 27 -24 l27 -16 154 247 c85 135 156 248 158 250 5 6 53
-53 54 -66 0 -7 3 -13 8 -13 4 -1 27 -30 52 -67 25 -36 57 -80 73 -98 15 -18
27 -36 27 -39 0 -4 5 -12 10 -19 18 -21 63 -83 120 -164 30 -43 60 -84 67 -91
7 -7 20 -26 30 -42 9 -17 22 -30 28 -30 5 0 38 46 73 103 35 56 122 194 193
307 71 113 129 208 129 212 0 4 -6 13 -13 20 -7 7 -71 90 -142 183 -71 94
-132 172 -135 175 -4 4 -27 34 -152 201 l-28 36 20 23 c11 13 20 27 20 31 0 8
28 55 92 154 10 17 68 111 128 210 60 99 114 185 120 192 5 7 10 14 10 17 0 2
24 43 53 91 28 47 57 95 63 106 14 24 37 49 32 34 -1 -5 5 -21 14 -35 61 -94
248 -404 248 -411 0 -5 5 -9 10 -9 6 0 10 -4 10 -10 0 -7 92 -163 130 -220 6
-8 32 -51 59 -95 l49 -80 -26 -35 c-14 -19 -32 -41 -39 -48 -7 -7 -13 -17 -13
-20 0 -4 -10 -18 -22 -32 -13 -14 -43 -52 -68 -85 -24 -33 -48 -64 -52 -70 -5
-5 -51 -66 -104 -135 -91 -121 -103 -136 -132 -172 -12 -14 -9 -24 14 -65 16
-26 31 -50 34 -53 3 -3 46 -70 94 -150 49 -80 92 -147 95 -150 3 -3 13 -17 21
-31 61 -105 117 -188 125 -188 6 0 78 95 160 211 83 116 173 241 200 279 28
37 57 77 65 89 38 56 36 54 49 39 6 -8 51 -77 99 -154 48 -77 90 -141 94 -143
5 -2 8 -8 8 -12 0 -5 24 -47 53 -94 l54 -85 38 26 c21 14 45 32 54 39 15 13
161 119 211 154 36 25 234 170 250 183 8 7 71 52 140 101 69 49 127 92 130 95
3 3 14 11 25 17 29 16 29 35 -3 69 -23 25 -237 283 -320 386 -17 21 -20 30
-10 33 169 55 239 76 252 76 9 0 16 4 16 8 0 5 6 9 13 9 6 0 51 12 99 27 48
15 90 27 93 27 2 0 25 8 50 19 25 11 45 17 45 15 0 -2 16 3 35 11 19 8 35 11
35 7 0 -4 5 -2 12 5 7 7 18 12 24 12 7 0 24 4 38 10 28 10 28 10 -19 64 -6 6
-30 36 -55 66 -25 30 -49 60 -55 66 -5 6 -23 29 -40 50 -16 21 -38 46 -47 56
-10 10 -18 23 -18 28 0 6 -3 10 -7 10 -5 0 -51 54 -103 120 -74 93 -99 119
-115 116 -11 -2 -78 -25 -150 -50 -104 -38 -231 -81 -265 -91 -3 -1 -18 -7
-35 -14 -16 -7 -37 -14 -45 -16 -8 -2 -60 -20 -115 -39 l-100 -36 -30 33 c-16
18 -50 56 -75 86 -25 29 -50 59 -55 65 -6 6 -33 38 -60 71 -28 33 -59 69 -70
81 -11 12 -34 39 -52 60 -35 44 -65 80 -91 109 -10 11 -40 47 -67 80 -28 33
-52 62 -55 65 -17 16 -100 118 -100 123 0 5 42 18 75 23 6 1 12 3 15 4 11 4
46 11 67 13 13 1 23 5 23 8 0 3 6 6 13 6 17 1 24 3 314 72 116 28 220 53 230
54 10 2 25 6 33 9 15 6 146 36 186 44 17 3 31 -11 70 -69 27 -39 52 -73 57
-75 4 -2 7 -10 7 -18 0 -8 3 -14 8 -14 4 0 20 -21 37 -48 16 -26 33 -51 37
-57 14 -17 138 -196 190 -273 50 -74 50 -74 87 -67 20 4 44 7 54 8 9 1 17 6
17 11 0 5 3 7 6 3 3 -3 27 1 52 8 26 8 58 16 72 19 14 3 70 17 125 31 55 14
107 27 115 29 8 2 44 12 80 21 36 9 72 19 80 20 8 2 15 4 15 5 0 1 10 3 23 4
40 5 43 19 14 61 -15 22 -31 45 -37 51 -5 6 -21 27 -35 47 -14 20 -28 37 -32
37 -5 0 -8 7 -8 15 0 8 -4 15 -10 15 -5 0 -10 5 -10 11 0 6 -6 16 -12 23 -7 7
-22 25 -33 41 -11 15 -37 49 -57 76 -21 27 -38 53 -38 58 0 5 -3 11 -8 13 -10
5 -140 181 -144 196 -2 9 38 24 132 48 74 19 144 36 155 39 11 2 21 4 23 6 3
2 78 20 102 24 13 2 145 39 149 41 4 3 -48 173 -57 189 -4 6 -7 15 -8 22 -3
17 -24 84 -34 108 -8 19 -131 399 -136 420 -5 23 -94 289 -98 292 -2 3 -18 -3
-35 -11 -17 -9 -34 -17 -38 -17 -10 -2 -25 -8 -137 -53 -50 -20 -96 -36 -103
-36 -7 0 -13 -4 -13 -8 0 -5 -6 -9 -12 -9 -21 -2 -82 -27 -90 -38 -4 -5 -8 -7
-8 -2 0 4 -12 1 -27 -7 -16 -7 -42 -17 -59 -20 l-31 -7 3 390 2 389 -42 -14
c-22 -8 -54 -20 -71 -28 -16 -7 -68 -28 -115 -46 -47 -17 -94 -36 -105 -40
-70 -29 -231 -93 -240 -95 -5 -1 -27 -9 -47 -19 -21 -9 -42 -16 -47 -16 -17 0
-24 -21 -23 -69 1 -68 13 -565 15 -643 l3 -68 -76 -31 c-41 -16 -84 -34 -95
-39 -11 -5 -72 -30 -135 -56 -63 -25 -146 -60 -185 -76 -38 -16 -74 -31 -80
-32 -11 -3 -28 -10 -125 -51 -100 -42 -232 -95 -237 -95 -5 0 1 92 12 225 3
28 7 86 10 130 3 44 8 98 10 120 2 22 7 74 10 115 2 41 7 100 10 131 3 31 8
91 11 135 5 69 8 97 13 140 0 6 7 11 14 11 6 1 80 22 162 47 83 26 160 49 173
52 13 2 42 11 65 18 79 26 222 69 237 71 8 1 28 7 43 14 16 6 33 11 38 11 5 0
9 15 10 33 1 17 2 48 4 67 11 151 17 235 20 295 2 39 7 115 10 170 4 55 8 116
10 137 2 21 1 38 -4 38 -4 0 -75 -23 -157 -51 -82 -28 -156 -51 -164 -51 -8
-1 -19 -4 -25 -8 -11 -8 -265 -90 -278 -90 -4 0 -21 -7 -37 -15 -17 -9 -30
-12 -30 -8 0 4 -5 2 -12 -5 -7 -7 -20 -12 -29 -12 -14 0 -17 8 -14 43 2 23 6
89 10 147 4 58 9 128 11 155 10 134 13 245 7 244 -5 -1 -11 0 -15 1 -19 4
-139 2 -144 -3 -3 -3 -11 -4 -18 -1 -21 8 -86 11 -86 4 0 -4 -12 -6 -27 -3
-46 6 -343 6 -349 0 -3 -3 -11 -4 -18 -1 -21 8 -86 11 -86 4 0 -4 -12 -6 -27
-3 -47 6 -213 6 -220 0 -3 -4 -13 -3 -22 2 -9 4 -27 5 -41 1z"/>
</g>
</svg>
