<svg width="100%" viewBox="0 0 838 964" xmlns="http://www.w3.org/2000/svg"><path d="M501.488 172.06l.235.054.07.09 19.452-.09 5.604 5.473 19.958-1.53.086-.002.046.098 13.336-1.015 6.074 4.763 12.478-1.004 6.466 2.456 15.48.936 5.316 2.514 12.643-3.615 1.836 1.894 11.45-1.893 21.992 17.05 7.97 14.855-6.044 4.58-16.99-9.16-.058-.008v.092l-10.35 6.325-17.596 6.327-13.365-7.793.675 5.868-14.388 3.942-.02-.186-16.973 4.036-9.225-.73-.125.254-11.682 2.768-11.683.918-19.427 3.758-15.06 1.192v.184l-13.797 12.504-27.308 16.188-.293-.138.066.073 2.863 26.266.112.465-3.11 12.57-11.78 6.784-.018.024v-.014l-.024.014.02-.03-.02.03-13.143 7.554 12.03 29.553.54.732 12.812 2.594-.066.323 11.7 13.65-.137.12L512.48 391h19.134l2.97 15.346-38.756 56.43-48.54-8.91-50.095-5.774-.227-.066 2.02 20.162 9.53 22.733 3.477 22.826 16.116 58.42.182.086-3.876 30.04 7.9 18.71 4.89 7.03 140.45-49.996-16.923-21.204 66.475-39.6v9.004l6.994 23.885 28.004-2.557 115.394-42.84 24.078-2.577 14.433 10.725v14.233l-10.308 21.657-24.95 16.088-143.26 45.483-317.725 127.467-29.946 8.762-32.576-4.95-20.41-6.395-12.37-18.402-.21-.16.072-.046 24.297-16.348 140.01-53.677-9.122-27.172-22.11 1.667 1.44-34.185-.017-.03-.165.27-8.248-38.554-12.19-47.484-8.886-16.315-14.924-14.9-15.224-18.4-4.01-16.868-6.01-8.71v-11.736L270.22 400.37l1.67-15.95-.664-7.974-22.117 5.28 1.486-2.298-.027-.038-1.46 2.336-24.406 2.695-23.918 1.416-8.546 8.263-3.67 7.58-46.325-22.128 10.447-16.796 7.692-.826.346-.015 3.978-8.35-3.87-2.624-.108-.025 9.806-16.776 39.86-16.87 25.84-18.424 13.735-3.578-.355-9.76 30.24-30.205 11.637-7.242 36.65-9.69-.01-.143.87-.295 36.407-25.94 27.216-5.94 19.625-3.63 30.35-15.183 32.826-1.816 26.062-13.364zm49.023 234.456l.726 5.316 66.57 81.643 9.402 23.756-66.805 39.602-6.597-22.93-57.733-71.126 38.512-56.43 15.926.17zm-408.265-26.964l39.434 22.866-7.537 10.95-18.28 20.626.028.178-18.024 17.137.002.007.01.016h-.008l.01.066-.046-.06-14.734 2.303.03-.108-3.452-8.344-12.85 11.82-8.26 5.493-3.53-7.97-6.225-1.42-5.363 3.896-2.68-9.75-.235.21 4.262-13.476 45.934-26.1 11.515-28.342zm152.44 13.48l-.06-.054-2.33 9.393 2.33-9.227.06-.11zm-5.42 21.356l.045-.187-.045-.034v.222zM365.41 211.99l27.216-5.94-27.217 5.94z" fill-opacity=".4" fill="#F5FCFF"/><path fill-opacity=".8" fill="#50B0E8" d="M294.626 393.143l-5.36 21.245h17.937"/><path fill-opacity=".8" fill="#50B0E8" d="M289.265 413.975v11.928l12.025-11.515h-12.025"/><path fill-opacity=".8" fill="#50B0E8" d="M289.265 425.903l13.814 20.005-1.79-31.52M301.29 414.388h5.913l-5.018 15.76"/><path fill-opacity=".8" fill="#62CBFF" d="M302.185 430.148l24.647 4.418-23.753 11.342"/><path fill-opacity=".8" fill="#50B0E8" d="M295.277 434.612l4.01 16.867 3.792-5.572"/><path fill-opacity=".8" fill="#50B0E8" d="M303.08 445.908l-3.794 5.57 15.224 18.4"/><path fill-opacity=".8" fill="#3E8DB8" d="M303.08 445.908l12.263-5.856-.833 29.827"/><path fill-opacity=".8" fill="#62CBFF" d="M315.343 440.052l11.394-5.44 14.28 9.772"/><path fill-opacity=".8" fill="#62CBFF" d="M315.343 440.052l-.833 29.827 26.508-25.496M302.185 430.148l24.552 4.464-19.513-20.26"/><path fill-opacity=".8" fill="#50B0E8" d="M289.356 414.232l-19.134-13.86 24.412-7.425"/><path fill-opacity=".7" fill="#469DCD" d="M294.634 392.947l-24.412 7.424 6.763-23.924"/><path fill-opacity=".7" fill="#50B0E8" d="M270.222 400.37l6.763-23.924-.495-35.806"/><path fill-opacity=".7" fill="#469DCD" d="M276.49 340.64l-9.728-17.654 5.13 61.435"/><path fill-opacity=".7" fill="#3E8DB8" d="M266.762 322.986l4.466 53.46-20.632-60.72"/><path fill-opacity=".7" fill="#3E8DB8" d="M271.228 376.446l-22.117 5.28 15.672-24.254"/><path fill-opacity=".7" fill="#469DCD" d="M250.596 379.428l-16.33-21.956h30.516"/><path fill-opacity=".7" fill="#3E8DB8" d="M264.782 357.472h-30.515l16.33-41.747"/><path fill-opacity=".6" fill="#469CCC" d="M200.786 360.442l30.32-33.685 3.16 30.715"/><path fill-opacity=".7" fill="#469CCC" d="M234.267 357.472l-3.15-30.603 19.507-10.942"/><path fill-opacity=".7" fill="#62CBFF" d="M385.5 350.626h50.994L411.067 341"/><path fill-opacity=".7" fill="#50B0E8" d="M411.067 341l45.905 17.74 1.65-8.114"/><path fill-opacity=".5" fill="#79D6FF" d="M445.81 348.032l-61.683-83.896L411.067 341"/><path fill-opacity=".5" fill="#50B0E8" d="M384.127 264.136l26.87 76.89-25.497 9.6"/><path fill-opacity=".5" fill="#50B0E8" d="M385.5 350.626L331.343 317.9l52.784-53.764"/><path fill-opacity=".7" fill="#3E8DB8" d="M331.343 317.9l-30.354 23.985 8.436 21.356"/><path d="M300.99 341.885s-23.72-1.055-24.08-.992c-.354.064 32.516 22.348 32.516 22.348l-8.437-21.355z" fill-opacity=".7" fill="#50B0E8"/><path fill-opacity=".5" fill="#50B0E8" d="M266.766 323.014l16.18-59.92 11.973 30.732M294.92 293.826l6.07 48.06-34.224-18.872"/><path fill-opacity=".7" fill="#50B0E8" d="M266.708 322.91l9.794 17.98 24.487.995"/><path fill-opacity=".5" fill="#50B0E8" d="M294.92 293.826l6.07 48.06 30.353-23.986"/><path fill-opacity=".5" fill="#469CCC" d="M294.92 293.826l36.423 24.074 52.978-53.888"/><path fill-opacity=".4" fill="#469CCC" d="M294.92 293.826l33.318-55.482 3.105 43.335M328.238 238.344l-36.746 9.717 3.427 45.766"/><path fill-opacity=".4" fill="#50B0E8" d="M294.92 293.826l-3.428-45.765-11.637 7.243"/><path fill-opacity=".6" fill="#50B0E8" d="M279.855 255.303l3.072 7.858-32.21 52.553"/><path fill-opacity=".6" fill="#469CCC" d="M282.927 263.16l-16.103 60.07-16.108-7.517"/><path fill-opacity=".5" fill="#50B0E8" d="M279.855 255.303l-30.24 30.205 1.1 30.205"/><path fill-opacity=".7" fill="#469CCC" d="M250.716 315.713l-19.7 11.092 5.22-27.96"/><path fill-opacity=".5" fill="#50B0E8" d="M236.237 298.846l13.734-3.578.746 20.445"/><path fill-opacity=".6" fill="#50B0E8" d="M236.237 298.846l-25.842 18.425 20.62 9.535M210.395 317.27l-39.86 16.87 30.15 26.4"/><path fill-opacity=".6" fill="#50B0E8" d="M210.395 317.27l20.62 9.535-30.33 33.735"/><path fill-opacity=".5" fill="#3E8DB8" d="M170.536 334.14l-9.806 16.775 39.955 9.625"/><path fill-opacity=".5" fill="#62CBFF" d="M160.838 350.94l17.395 11.8 22.452-2.2"/><path fill-opacity=".5" fill="#50B0E8" d="M160.73 361.915l3.978-8.35 13.525 9.175"/><path fill-opacity=".4" fill="#50B0E8" d="M384.32 264.012l59.935-16.047-12.7 38.776"/><path fill-opacity=".6" fill="#50B0E8" d="M384.32 264.012l44.595 61.01 2.64-38.28"/><path fill-opacity=".7" fill="#8EDFFF" d="M429.966 309.822l-1.05 15.2 16.823 23.43"/><path fill-opacity=".4" fill="#8EDFFF" d="M431.554 286.74l26.72-22.728-9.747-6.313"/><path fill-opacity=".4" fill="#50B0E8" d="M444.255 247.965l4.272 9.734-16.973 29.04"/><path fill-opacity=".3" fill="#50B0E8" d="M444.255 247.965l-59.934 16.047 39.976-40.304M424.296 223.708l-39.975 40.304-23.364-1.86"/><path fill-opacity=".4" fill="#50B0E8" d="M360.956 262.152l-29.526 19.306 52.89-17.446"/><path fill-opacity=".4" fill="#50B0E8" d="M331.43 281.458l-3.3-43.23 49.968 13.52"/><path fill-opacity=".3" fill="#62CBFF" d="M328.13 238.227l37.94-12.87 12.028 26.39"/><path fill-opacity=".3" fill="#50B0E8" d="M328.13 238.552l37.28-26.56-19.943 20.354"/><path fill-opacity=".3" fill="#50B0E8" d="M365.41 211.99l.66 13.367-20.603 6.99M365.41 211.99l27.216-5.94-26.56 19.222M366.07 225.27l12.028 26.477 16.342-24.08"/><path fill-opacity=".3" fill="#50B0E8" d="M392.626 206.05l1.814 21.617-28.33-2.31M394.44 227.667l29.856-3.796-46.515 27.877"/><path fill-opacity=".3" fill="#62CBFF" d="M394.44 227.667l-1.814-21.616 15.955 19.82"/><path fill-opacity=".2" fill="#50B0E8" d="M392.626 206.05l19.625-3.63-10.923 14.44"/><path fill-opacity=".3" fill="#62CBFF" d="M412.25 202.42l-3.67 23.45-7.253-9.01"/><path fill-opacity=".2" fill="#50B0E8" d="M412.25 202.42l30.35-15.18-18.304 36.63"/><path fill-opacity=".3" fill="#50B0E8" d="M412.25 202.42l-3.67 23.45 15.716-2"/><path fill-opacity=".2" fill="#50B0E8" d="M442.6 187.24l32.826-1.816-51.13 38.447"/><path fill-opacity=".2" fill="#50B0E8" d="M475.426 185.424l26.062-13.364-1.815 42.085M475.426 185.424l-51.13 38.447 75.377-9.725"/><path fill-opacity=".3" fill="#469CCC" d="M424.296 223.87l20.285 24.092 55.093-33.817"/><path fill-opacity=".3" fill="#50B0E8" d="M444.25 247.962l4.335 9.956 22.078-9.956"/><path fill-opacity=".3" fill="#8EDFFF" d="M470.663 247.962l-12.095 16.188-9.983-6.232"/><path fill-opacity=".3" fill="#50B0E8" d="M444.58 247.962l55.093-12.504-22.226 12.504"/><path fill-opacity=".3" fill="#469CCC" d="M444.58 247.962l55.093-12.504v-21.313"/><path fill-opacity=".3" fill="#8EDFFF" d="M470.663 247.962l-12.095 16.188 27.308-16.188M477.447 247.962l22.226-12.504-13.797 12.504"/><path fill-opacity=".2" fill="#50B0E8" d="M501.723 172.205l10.63 14.21 8.892-14.3"/><path fill-opacity=".2" fill="#50B0E8" d="M501.723 172.114l10.726 14.3-12.777 27.73M521.245 172.114l22.907 22.367-31.703-8.065"/><path fill-opacity=".2" fill="#50B0E8" d="M544.152 194.48l-9.897 17.235-21.806-25.3"/><path fill-opacity=".2" fill="#50B0E8" d="M526.85 177.587l19.958-1.53-2.656 18.424"/><path fill-opacity=".2" fill="#469CCC" d="M512.45 186.415l-12.777 27.73 34.487-2.43"/><path fill-opacity=".3" fill="#50B0E8" d="M499.673 235.274l15.06-1.192-15.06-19.937M499.673 214.145l15.06 19.937 8.43-21.592"/><path fill-opacity=".3" fill="#50B0E8" d="M514.733 234.082l19.427-3.758-13.616-11.13M523.162 212.49l10.998 17.834-13.616-11.13"/><path fill-opacity=".3" fill="#50B0E8" d="M523.162 212.49l10.998-.775v18.61"/><path fill-opacity=".4" fill="#79D6FF" d="M534.16 211.715l23.365 14.923-13.377-32.157"/><path fill-opacity=".3" fill="#50B0E8" d="M534.16 211.715v18.61l11.683-.92"/><path fill-opacity=".5" fill="#50B0E8" d="M545.843 229.406l11.682-2.768-23.365-14.923"/><path fill-opacity=".4" fill="#469CCC" d="M544.148 194.48l19.7 18.884-6.323 13.274"/><path fill-opacity=".4" fill="#50B0E8" d="M544.148 194.48l19.7 19.067-16.954-37.492"/><path fill-opacity=".3" fill="#50B0E8" d="M546.878 176.158l13.398-1.02-4.442 20.685"/><path fill-opacity=".4" fill="#50B0E8" d="M560.276 175.138l-4.442 20.685 8.013 17.724"/><path fill-opacity=".3" fill="#79D6FF" d="M560.276 175.138l13.196 10.342-11.163 11.508"/><path fill-opacity=".4" fill="#79D6FF" d="M573.472 185.48l-11.163 11.508 11.162 20.5"/><path fill-opacity=".4" fill="#469CCC" d="M573.472 185.48l8.06 16.005-8.06 16.004"/><path fill-opacity=".4" fill="#50B0E8" d="M562.31 196.988l11.162 20.5-9.625-3.94"/><path fill-opacity=".1" fill="#50B0E8" d="M563.847 213.547l-6.23 12.834 15.855-8.89"/><path fill-opacity=".1" fill="#8EDFFF" d="M557.616 226.38l9.258.734 6.598-9.625"/><path fill-opacity=".1" fill="#50B0E8" d="M569.72 222.96l14.47.12-10.718-5.59"/><path fill-opacity=".4" fill="#50B0E8" d="M573.472 217.49l10.717 5.59-2.657-21.595"/><path fill-opacity=".2" fill="#50B0E8" d="M566.32 179.904l12.508-1.008-5.356 6.784"/><path fill-opacity=".2" fill="#50B0E8" d="M578.828 178.896l15.44 5.867-20.796.917"/><path fill-opacity=".2" fill="#50B0E8" d="M594.267 184.763l-12.734 16.722-8.06-15.805M594.267 184.763l5.683 7.15.825-9.625M600.775 182.288l-6.508 2.475-8.973-3.41"/><path fill-opacity=".4" fill="#50B0E8" d="M594.267 184.763l11.823 14.575-8.57 14.21"/><path fill-opacity=".4" fill="#469CCC" d="M594.267 184.763l3.988 34.56-14.388 3.94"/><path fill-opacity=".4" fill="#79D6FF" d="M594.267 184.763l-10.4 38.5-2.428-21.778"/><path fill-opacity=".2" fill="#50B0E8" d="M600.775 182.288l-.813 9.493 6.128 7.375"/><path fill-opacity=".2" fill="#469CCC" d="M600.775 182.288l20.342 9.625-6.78 8.433"/><path fill-opacity=".2" fill="#469CCC" d="M600.775 182.288l5.315 16.867 8.248 1.19"/><path fill-opacity=".4" fill="#50B0E8" d="M597.58 213.454l13.364 7.793-4.854-22.092M606.09 199.155l4.854 22.092 17.596-6.326"/><path fill-opacity=".4" fill="#79D6FF" d="M614.338 200.346l14.202 14.575-22.45-15.765"/><path fill-opacity=".2" fill="#50B0E8" d="M606.09 184.802l12.643-3.615 2.384 10.726"/><path fill-opacity=".4" fill="#79D6FF" d="M621.117 191.913l-6.78 8.433 14.203 14.575-7.423-23.007"/><path fill-opacity=".2" fill="#50B0E8" d="M618.733 181.187l9.807 10.13-3.712 12.1"/><path fill-opacity=".2" fill="#469CCC" d="M618.733 181.187l6.095 22.23-4.024-11.115"/><path fill-opacity=".2" fill="#50B0E8" d="M628.54 191.317l2.012 15.72-5.724-3.62"/><path fill-opacity=".2" fill="#50B0E8" d="M630.552 207.038l3.757-11.276 4.58 12.834-8.338-1.558M624.828 203.417l3.712 11.504 2.012-7.882"/><path fill-opacity=".1" fill="#50B0E8" d="M628.54 214.92l2.012-7.882 8.338 1.558"/><path fill-opacity=".2" fill="#50B0E8" d="M620.383 183.112l11.637-1.925-3.48 10.13M632.02 181.187l2.29 14.575-5.77-4.445"/><path fill-opacity=".2" fill="#79D6FF" d="M628.54 191.317l5.77 4.445-3.758 11.276"/><path fill-opacity=".2" fill="#79D6FF" d="M632.02 181.187l21.992 17.05-19.703-2.475"/><path fill-opacity=".2" fill="#79D6FF" d="M634.31 195.762l19.702 2.475 3.39 13.11"/><path fill-opacity=".2" fill="#8EDFFF" d="M634.31 195.762l4.58 12.742 18.512 2.842"/><path fill-opacity=".2" fill="#79D6FF" d="M638.948 208.513l16.99 9.158 1.464-6.324"/><path fill-opacity=".2" fill="#8EDFFF" d="M655.938 217.67l6.045-4.578-4.58-1.746"/><path fill-opacity=".2" fill="#79D6FF" d="M654.012 198.237l3.39 13.11 4.58 1.745"/><path fill-opacity=".3" fill="#3E8DB8" d="M458.34 264.085l-.205 13.922-6.7-8.146"/><path fill-opacity=".4" fill="#469DCD" d="M458.34 264.085l2.913 26.72-3.118-12.798"/><path fill-opacity=".4" fill="#35799D" d="M451.434 269.86l-7.18 5.93 7.18 8.25"/><path fill-opacity=".6" fill="#35799D" d="M445.698 277.445l.71 32.75 9.484-12.21"/><path fill-opacity=".4" fill="#35799D" d="M445.698 277.445l5.736 6.596 4.458 13.944"/><path fill-opacity=".6" fill="#3E8DB8" d="M444.26 275.788l1.438 1.657.71 32.75"/><path fill-opacity=".4" fill="#3E8DB8" d="M444.26 275.795l1.075 19.054-13.773-8.252"/><path fill-opacity=".6" fill="#3E8DB8" d="M431.562 286.598l-1.567 23.596 8.454-2.393"/><path fill-opacity=".6" fill="#469DCD" d="M438.45 307.8l7-12.95-13.888-8.252"/><path fill-opacity=".4" fill="#3E8DB8" d="M451.484 284.09l6.72-6.116-2.312 20.01"/><path fill-opacity=".4" fill="#35799D" d="M451.484 269.864v14.227l6.72-6.116"/><path fill-opacity=".6" fill="#469DCD" d="M458.205 277.974l3.11 12.84-3.11 12.572"/><path fill-opacity=".6" fill="#3E8DB8" d="M458.205 277.974v25.412l-2.313-5.402"/><path fill-opacity=".6" fill="#469DCD" d="M458.205 303.386l-11.822 6.808 9.51-12.21"/><path fill-opacity=".6" fill="#3E8DB8" d="M446.383 310.194l-7.877-2.393 6.965-13.065M446.383 310.194h-16.318l8.44-2.393"/><path fill-opacity=".6" fill="#469DCD" d="M446.383 310.194l-13.143 7.554-3.175-7.554"/><path d="M442.618 300.086l-4.17 7.715-6.886-21.202 12.697-10.803 1.07 18.983.088.053.03-.047-1.19-18.988-.003-.004 7.18-5.93v14.18l4.457 13.944-4.408-13.893v-14.17l-.05-.06 6.907-5.775 2.863 26.266.112.465-3.11 12.57-11.78 6.784-.018.024v-.014l-.024.014.02-.03-.445-7.127.425 7.157-13.143 7.554-3.175-7.554 8.44-2.393 4.113-7.714zm-11.056-13.488l-1.567 23.596 8.454-2.393-6.888-21.202zm14.136-9.153l10.194 20.54-10.194-20.54z" fill-opacity=".2" fill="#204F67"/><path fill-opacity=".6" fill="#469CCC" d="M234.267 357.472l-33.48 2.97 23.917 23.98"/><path fill-opacity=".6" fill="#50B0E8" d="M234.267 357.472l-9.563 26.95 20.573-12.147"/><path fill-opacity=".7" fill="#469CCC" d="M245.277 372.275l-20.573 12.146 24.407-2.694"/><path fill-opacity=".7" fill="#50B0E8" d="M245.277 372.275l3.834 9.45 1.514-2.424"/><path fill-opacity=".6" fill="#50B0E8" d="M200.786 360.442L192.24 394.1l21.546-20.833"/><path fill-opacity=".6" fill="#469CCC" d="M224.704 384.42l-23.918 1.416 13-12.57"/><path fill-opacity=".5" fill="#469CCC" d="M192.24 394.1l-14.182-31.344 22.728-2.314"/><path fill-opacity=".5" fill="#3E8DB8" d="M178.058 362.756l-17.674-.826 8.837 26.048"/><path fill-opacity=".5" fill="#50B0E8" d="M178.058 362.756l-8.837 25.222 23.02 6.12"/><path fill-opacity=".5" fill="#469DCD" d="M160.384 361.93l-18.14 17.622 26.977 8.426"/><path fill-opacity=".5" fill="#50B0E8" d="M142.245 379.552l10.447-16.796 7.692-.826"/><path fill-opacity=".5" fill="#3E8DB8" d="M142.245 379.552l23.23 24.602L192.24 394.1l-49.995-14.548"/><path fill-opacity=".5" fill="#50B0E8" d="M192.24 394.1l-3.67 7.58-23.095 2.474"/><path fill-opacity=".5" fill="#3E8DB8" d="M142.245 379.552l6.88 26.666 25.018 7.15"/><path fill-opacity=".5" fill="#50B0E8" d="M174.143 413.368l-8.668-9.188 16.204-1.762"/><path fill-opacity=".4" fill="#469DCD" d="M142.245 379.552l-13.738 33.816 20.62-7.15"/><path fill-opacity=".4" fill="#50B0E8" d="M128.507 413.368l27.355 20.626-6.736-27.776-20.62 7.15"/><path fill-opacity=".4" fill="#469DCD" d="M155.862 433.994l7.77-23.63-14.506-4.146"/><path fill-opacity=".5" fill="#50B0E8" d="M160.07 421.19l14.073-7.822-10.512-3.004"/><path fill-opacity=".3" fill="#50B0E8" d="M130.73 407.893l-45.933 26.1 43.71-20.625"/><path fill-opacity=".3" fill="#469DCD" d="M84.797 433.994l-4.262 13.475 27.23-24.314-22.968 10.838"/><path fill-opacity=".3" fill="#469DCD" d="M95.626 433.994l40.442 4.95-28.304-15.788"/><path fill-opacity=".3" fill="#469DCD" d="M136.068 438.944l-7.56-25.576-20.744 9.788"/><path fill-opacity=".4" fill="#469DCD" d="M136.068 438.944l-7.56-25.576 16.96 12.788"/><path fill-opacity=".6" fill="#50B0E8" d="M127.597 437.907l-4.497 15.736 14.78-2.31"/><path fill-opacity=".6" fill="#50B0E8" d="M137.88 451.4l-1.812-12.456-8.47-1.037"/><path fill-opacity=".6" fill="#50B0E8" d="M137.834 451.34l18.057-17.168-19.822 4.772"/><path fill-opacity=".4" fill="#50B0E8" d="M136.068 438.944l19.823-4.772-10.423-8.016"/><path fill-opacity=".6" fill="#3E8DB8" d="M80.745 447.175l2.705 9.834 24.874-18.066"/><path fill-opacity=".3" fill="#3E8DB8" d="M80.745 447.175l27.58-8.23-12.705-5.11M95.62 433.834l12.704 5.11 19.273-1.037"/><path fill-opacity=".6" fill="#50B0E8" d="M88.813 453.114l8.525 1.94 10.986-16.11"/><path fill-opacity=".6" fill="#50B0E8" d="M95.04 454.532l3.53 7.97 8.257-5.493"/><path fill-opacity=".6" fill="#3E8DB8" d="M108.324 438.944l-1.497 18.065-9.465-1.99"/><path fill-opacity=".6" fill="#3E8DB8" d="M106.827 457.01l20.77-19.103-19.273 1.037"/><path fill-opacity=".6" fill="#50B0E8" d="M119.678 445.19l3.485 8.423 4.434-15.706"/><path fill-opacity=".8" fill="#50B0E8" d="M398.99 468.188l-2.026-20.212-20.973-6.135 23 26.348"/><path fill-opacity=".8" fill="#3E8DB8" d="M294.634 392.947l28.44-14.41-15.805 35.75"/><path fill-opacity=".8" fill="#3E8DB8" d="M323.075 378.537l3.848 56.238-19.654-20.488 15.805-35.75"/><path fill-opacity=".8" fill="#62CBFF" d="M323.075 378.537l33.543 41.8-29.695 14.438M356.618 420.338l-15.497 23.978-14.197-9.54"/><path fill-opacity=".8" fill="#62CBFF" d="M341.112 444.316l34.88-2.475-19.374-21.502"/><path fill-opacity=".8" fill="#79D6FF" d="M385.154 350.74l1.975 63.547 85.447 25.06"/><path fill-opacity=".8" fill="#62CBFF" d="M387.13 414.287l10.065 33.805-21.204-6.25"/><path fill-opacity=".8" fill="#62CBFF" d="M397.195 448.092l50.095 5.775-60.16-39.58 10.065 33.805"/><path fill-opacity=".8" fill="#62CBFF" d="M427.405 440.785l45.172-1.438 23.253 23.43M427.405 440.785l19.885 13.082 48.54 8.91M427.405 440.785l-40.276-26.498 85.447 25.06"/><path fill-opacity=".8" fill="#62CBFF" d="M375.99 441.84l11.14-27.553-30.352 5.92M356.778 420.206l30.35-5.92-1.818-63.052"/><path fill-opacity=".8" fill="#8EDFFF" d="M495.83 462.776l38.755-56.43-101.96-7.487"/><path d="M432.626 398.86c.02.225 37.3-34.26 37.3-34.26L512.48 391s-79.873 7.63-79.856 7.86z" fill-opacity=".7" fill="#8EDFFF"/><path fill-opacity=".7" fill="#8EDFFF" d="M432.626 398.858l79.856-7.86 6.103 14.173"/><path fill-opacity=".7" fill="#50B0E8" d="M512.482 391h19.134l-13.03 14.17"/><path fill-opacity=".7" fill="#62CBFF" d="M531.616 391l2.97 15.346-16-1.175"/><path fill-opacity=".5" fill="#79D6FF" d="M385.154 350.74h50.792l-3.304 48.12"/><path fill-opacity=".7" fill="#62CBFF" d="M435.946 350.74l16.998 29.544-20.302 18.575"/><path fill-opacity=".7" fill="#50B0E8" d="M435.946 350.74l20.874 7.972-3.876 22.717"/><path fill-opacity=".7" fill="#62CBFF" d="M452.523 380.67l17.732-16.07-11.876-13.86"/><path fill-opacity=".8" fill="#62CBFF" d="M534.585 406.346l15.926.17 7.254 52.968M534.585 406.346L522.38 424.12l35.384 35.364"/><path fill-opacity=".5" fill="#50B0E8" d="M323.372 378.814l33.538 41.527 28.59-69.714"/><path fill-opacity=".5" fill="#469DCD" d="M331.343 317.9l-36.424 75.352 90.58-42.626"/><path fill-opacity=".7" fill="#3E8DB8" d="M276.91 376.477l18.01 16.775 14.506-30.01"/><path fill-opacity=".7" fill="#469DCD" d="M276.91 376.477l-.408-35.866 32.924 22.63-32.516 13.237"/><path fill-opacity=".8" fill="#62CBFF" d="M341.018 444.384l26.173 35.626-52.68-10.13M314.51 469.88l14.924 14.9 37.757-4.77"/><path fill-opacity=".8" fill="#50B0E8" d="M398.99 468.188l-19.795 39.325 29.324-16.592"/><path fill-opacity=".8" fill="#62CBFF" d="M329.434 484.78l8.887 16.314 28.87-21.084"/><path fill-opacity=".8" fill="#62CBFF" d="M367.19 480.01l12.005 27.503-40.874-6.42"/><path fill="#3E8DB8" d="M338.32 501.094l12.19 47.484 28.685-41.065"/><path fill="#469DCD" d="M408.52 490.92l-29.325 16.593 32.8 6.233"/><path fill="#469DCD" d="M379.195 507.513l-17.43 24.957 50.23-18.724M361.764 532.47l19.77 17.89-31.024-1.782M350.51 548.578l8.248 38.553 22.775-36.77"/><path fill="#50B0E8" d="M361.764 532.47l19.77 17.89 30.46-36.614"/><path fill="#8EDFFF" d="M411.995 513.746l16.148 58.535-46.61-21.92"/><path fill="#50B0E8" d="M365.253 576.645l39.587-15.324-23.307-10.96"/><path fill="#3E8DB8" d="M365.253 576.645l23.63 70.383 23.112-55.24"/><path fill="#469DCD" d="M404.84 561.32l16.405 33.468-55.992-18.143"/><path fill="#50B0E8" d="M421.245 594.788l11.105 26.29-20.355-29.29"/><path fill="#35799D" d="M411.995 591.79l-23.113 55.238 48.725-18.423"/><path fill="#469DCD" d="M365.253 576.645l-6.433 10.062 20.79 32.704"/><path fill="#469DCD" d="M358.94 586.892l-1.44 34.185 15.468-12.115"/><path fill="#3E8DB8" d="M357.5 621.077l22.11-1.666-6.642-10.448"/><path fill="#50B0E8" d="M404.84 561.32l23.452 10.932-3.876 30.04"/><path fill-opacity=".8" fill="#50B0E8" d="M375.99 441.84l11.547 49.502 11.452-23.154"/><path fill-opacity=".8" fill="#79D6FF" d="M375.99 441.84l3.205 65.673 8.342-16.17"/><path fill-opacity=".8" fill="#79D6FF" d="M379.195 507.513l-12.058-27.466 8.854-38.206M375.99 441.84l-34.87 2.476 26.017 35.73"/><path fill="#3E8DB8" d="M435.946 628.482L248.723 700.26l71.144 37.537"/><path fill="#469DCD" d="M319.867 737.797l116.08-109.315 201.644-18.15M435.946 628.482l201.645-71.777v53.626"/><path fill="#50B0E8" d="M637.59 556.705l140.01-51.98L637.59 610.33"/><path fill="#50B0E8" d="M777.6 504.724l3.253 60.124L637.59 610.33"/><path fill="#62CBFF" d="M777.6 504.724l38.51 22.38-35.257 37.744"/><path fill="#50B0E8" d="M777.6 504.724l24.078-2.578 14.433 24.957"/><path fill="#62CBFF" d="M801.678 502.146l14.433 10.725v14.233"/><path fill="#79D6FF" d="M816.11 527.103l-10.308 21.657-24.95 16.088"/><path fill="#35799D" d="M248.723 700.26l8.62 41.35 62.524-3.813"/><path fill="#3E8DB8" d="M257.344 741.61l32.577 4.95 29.947-8.763M257.344 741.61l-32.99-24.958 24.37-16.393"/><path fill="#469DCD" d="M224.426 716.607l12.507 18.608 20.41 6.394"/><path fill="#50B0E8" d="M496.073 462.776l26.306-38.655 31.426 109.78"/><path fill="#62CBFF" d="M522.38 424.12l35.384 35.364-10.532 51.452-24.853-86.815"/><path fill="#3E8DB8" d="M547.232 510.936l13.17 45.896 36.95-25.24"/><path fill="#62CBFF" d="M547.232 510.936l50.12 20.655-39.588-72.106"/><path fill-opacity=".8" fill="#8EDFFF" d="M551.236 411.832l66.57 81.643-60.042-33.99"/><path fill="#62CBFF" d="M617.806 493.475l-20.454 38.116-39.588-72.106"/><path fill="#8EDFFF" d="M617.806 493.475l9.402 23.756-29.856 14.36"/><path fill="#35799D" d="M560.733 556.832l16.99 21.29 85.28-30.63"/><path fill="#469DCD" d="M560.733 556.832l73.47-6.71-36.85-18.53"/><path fill="#50B0E8" d="M627.208 517.23v29.376l-29.74-14.957M627.208 526.236l6.994 23.885-6.994-3.514"/><g opacity=".9"><path fill-opacity=".5" fill="#3E8DB8" d="M646.465 568.073L248.387 685.226l26.944 69.302"/><path fill-opacity=".5" fill="#50B0E8" d="M509.005 584.025l-161.65 142.452L696.5 597.225"/><path fill-opacity=".5" fill="#8EDFFF" d="M588.733 458.62L568.94 614.275l136.903-15.948"/><path fill-opacity=".5" fill="#8EDFFF" d="M821.86 511.423L696.5 521.87l-15.63 74.254"/><path fill-opacity=".5" fill="#50B0E8" d="M299.52 444.926l89.073 204.552 44.536-89.103"/><path fill-opacity=".5" fill="#3E8DB8" d="M410.59 517.474L366.324 661.3H469.97"/><path fill-opacity=".6" fill="#50B0E8" d="M479.315 458.62l109.967 95.155 9.897-101.754"/><path fill-opacity=".4" fill="#8EDFFF" d="M329.21 452.02l210.04 3.3-172.925-56.1"/><path fill-opacity=".5" fill="#35799D" d="M272.58 666.527l-50.037 64.348 106.668 3.304-56.63-67.653"/><path fill-opacity=".5" fill="#8EDFFF" d="M821.86 497.67l-12.644 66.554-258.42 19.252"/><path fill-opacity=".5" fill="#50B0E8" d="M329.21 339.268l-21.434 144.104 117.798 70.403"/><path fill-opacity=".5" fill="#3E8DB8" d="M355.603 511.955L329.21 630.222l105.02 50.054"/><path fill-opacity=".5" fill="#35799D" d="M405.636 559.27L232.99 724.827l236.98-49.5"/><path fill-opacity=".5" fill="#50B0E8" d="M522.2 420.668l61.58 195.805 182.88-49.08"/><path d="M229.092 605.19L164.24 745.574l164.97-37.747" fill-opacity=".1" fill="#A8E0FB"/><path d="M750.592 581.267l-20.206 35.208 36.272-9.9" fill-opacity=".2" fill="#A8E0FB"/></g><g opacity=".9"><path fill-opacity=".5" fill="#A8E0FB" d="M437.57 191.34l-.824 4.745 5.67-1.65M446.23 188.04l-3.814 3.3 4.874 2.372M474.065 184.02l-20.618.514 19.278 1.547"/><path d="M494.164 175.562l4.128 5.362 2.078-6.497" fill-opacity=".3" fill="#2B6685"/><path fill-opacity=".3" fill="#50B0E8" d="M505.913 176.438l.165 8.612h4.123"/><path fill-opacity=".3" fill="#A8E0FB" d="M507.146 178.914l3.88 2.01-.825 4.126M507.146 174.427l5.86 8.693 4.04-2.376"/><path fill-opacity=".3" fill="#50B0E8" d="M507.146 174.427l12.787-1.454-2.886 7.77M519.933 172.973v7.77h-2.886l2.886-7.77"/><path fill-opacity=".3" fill="#A8E0FB" d="M517.047 180.744l-4.042 2.376 6.928-2.376M519.933 172.973l-12.787 1.454v-1.454M500.634 176.858l.413 5.074 4.04-2.442"/><path fill-opacity=".3" fill="#A8E0FB" d="M500.634 176.858l.413 5.074-3.052 7.128"/><path fill-opacity=".3" fill="#2B6685" d="M501.047 181.932l7.835 7.128-6.846-2.31"/><path fill-opacity=".3" fill="#A8E0FB" d="M501.047 181.932l1.088 4.852-1.5 4.917M497.995 189.06l2.64 2.64.412-9.768"/><path fill-opacity=".3" fill="#50B0E8" d="M505.088 179.49l.693 6.747-4.733-4.305M502.234 186.817l6.648 2.243 2.72 7.26"/><path fill-opacity=".3" fill="#50B0E8" d="M502.127 186.817l-1.493 4.884 10.97 4.62"/><path d="M519.962 180.754c0 .017-6.936 2.352-6.936 2.352l.606 3.13s6.33-5.5 6.33-5.482zM511.385 180.754l1.64 2.352.607 3.13M519.962 173.042l4.59-.042-4.59 7.754" fill-opacity=".3" fill="#A8E0FB"/><path fill-opacity=".2" fill="#489FCE" d="M528.812 177.47l7.05 7.096 9.923 3.61M528.812 177.47h12.75l-1.336 7.197M541.562 177.47l-1.336 7.197 5.56 3.508"/><path fill-opacity=".2" fill="#A8E0FB" d="M528.812 177.47l9.963-1.476 2.787 1.477"/><path fill-opacity=".3" fill="#A8E0FB" d="M524.552 173l11.592 11.667-7.332-1.844"/><path fill-opacity=".3" fill="#A8E0FB" d="M524.552 173l4.26 9.823-5.7-1.754"/><path fill-opacity=".3" fill="#50B0E8" d="M523.113 181.07l8.775 10.92-2.433-9.006"/><path fill-opacity=".2" fill="#50B0E8" d="M531.888 191.99l4.256-7.323-6.69-1.683"/><path fill-opacity=".2" fill="#489FCE" d="M536.144 184.667l6.862 8.43 2.78-4.963"/><path fill-opacity=".2" fill="#2B6685" d="M541.562 177.47l4.76-1.476-.537 12.14"/><path fill-opacity=".2" fill="#A8E0FB" d="M546.32 175.994h12.752l-4.145 4.06"/><path fill-opacity=".2" fill="#A8E0FB" d="M554.927 180.054l-.82 8.08-7.786-12.14"/><path fill-opacity=".2" fill="#A8E0FB" d="M546.32 175.994l-.535 12.14h8.322"/><path fill-opacity=".3" fill="#A8E0FB" d="M554.107 188.134l-5.18 7.737-3.142-7.736M536.902 193.168l7.04 15.07 1.1-10.238"/><path fill-opacity=".3" fill="#2B6685" d="M545.785 188.134l3.142 7.737-3.884 2.096"/><path fill-opacity=".3" fill="#A8E0FB" d="M545.785 188.134l-.742 9.832-1.992-4.916"/><path fill-opacity=".3" fill="#489FCE" d="M536.193 184.652l6.907 8.516 1.943 4.798"/><path fill-opacity=".3" fill="#50B0E8" d="M536.193 184.652l.71 8.516 8.14 4.798"/><path fill-opacity=".4" fill="#A8E0FB" d="M548.927 200.703l-3.142 16.337 4.177 5.016"/><path fill-opacity=".4" fill="#2B6685" d="M548.927 200.703l7.963 11.453-7.56-3.095"/><path fill-opacity=".4" fill="#A8E0FB" d="M557.748 215.126l.128 5.346-3.36 3.498 3.232-8.844"/><path fill-opacity=".4" fill="#A8E0FB" d="M557.748 215.126l3.365 6.93-3.237-1.584M561.113 222.056l-6.598 1.914 3.36-3.498"/><path fill-opacity=".5" fill="#3E8DB8" d="M579.583 202.783l-6.532 12.343-.263-24.157"/><path fill-opacity=".4" fill="#A8E0FB" d="M581.034 204.037l-7.323 18.02 7.456-5.744"/><path fill-opacity=".4" fill="#3E8DB8" d="M581.034 204.037l2.64 4.818-2.508 7.458M588.886 204.63l.726 7.327-2.64-2.706"/><path fill-opacity=".4" fill="#3E8DB8" d="M586.973 209.25l2.64 2.707-5.346 3.17"/><path fill-opacity=".4" fill="#A8E0FB" d="M589.612 211.957l-4.223 8.515-1.123-5.346"/><path fill-opacity=".4" fill="#3E8DB8" d="M590.47 196.38l.395 10.56 3.1-2.903"/><path fill-opacity=".3" fill="#A8E0FB" d="M573.71 188.328l8.644 11.022-5.674-10.56"/><path fill-opacity=".2" fill="#2B6685" d="M569.95 183.51l6.635 5.266 1.447-3.418"/><path fill-opacity=".3" fill="#A8E0FB" d="M578.032 185.49l-1.447 3.286 5.77 10.574M588.952 190.374l.66 3.465 1.583-1.42"/><path fill-opacity=".2" fill="#3E8DB8" d="M592.845 184.698l7.39 8.316-3.76-9.504"/><path fill-opacity=".3" fill="#A8E0FB" d="M605.183 190.374l2.44 6.006-3.892 4.158"/><path fill-opacity=".3" fill="#3E8DB8" d="M607.624 192.42l2.177 4.554 4.29-4.554"/><path fill-opacity=".3" fill="#35799D" d="M617.785 192.107l-4.62 2.59.26 5.84"/><path fill-opacity=".3" fill="#A8E0FB" d="M623.063 191.298l-1.257 1.716 1.52.825"/><path fill-opacity=".3" fill="#35799D" d="M627.22 192.107l.858 6.45 1.187-3.1"/><path fill-opacity=".4" fill="#35799D" d="M624.775 198.558l1.385 5.478 1.06-1.782M617.785 198.558v5.478l1.58-1.98-1.58-3.498"/><path fill-opacity=".2" fill="#A8E0FB" d="M603.86 184.17l2.902 5.016 3.893-2.772"/><path fill-opacity=".2" fill="#3E8DB8" d="M606.366 182.585l.89 2.707-3.397-1.122M610.655 186.414l3.96 3.3-7.853-.528M612.57 182.585l3.76 6.6 1.455-4.355"/><path fill-opacity=".2" fill="#35799D" d="M619.364 180.737l-1.58 7.327 2.9 1.65"/><path fill-opacity=".4" fill="#2B6685" d="M629.855 207.732l-2.573 4.092 2.573-.99M633.616 198.822l-1.386 9.504 2.64-1.782M641.336 195.918l-1.65 7.062 2.243-2.706"/><path fill-opacity=".4" fill="#35799D" d="M613.756 203.574l-1.913 7.326 3.332-3.168"/><path fill-opacity=".3" fill="#A8E0FB" d="M609.797 196.974l3.324-3.542.39 7.502"/><path fill-opacity=".2" fill="#A8E0FB" d="M567.34 181.642l8.907.413 1.732 3.465M576.28 182.12l1.7 3.4 9.153-1.94"/><path fill-opacity=".2" fill="#2B6685" d="M587.133 183.58l-8-4.165-2.853 2.706"/><path fill-opacity=".2" fill="#2B6685" d="M583.41 181.642l9.497 1.156-5.774 1.023"/><path fill-opacity=".2" fill="#A8E0FB" d="M592.366 182.732l-1.026 3.86-7.258-1.072"/><path fill-opacity=".2" fill="#2B6685" d="M583.41 187.747l-1.703 2.888-3.728-5.115"/><path fill-opacity=".3" fill="#A8E0FB" d="M564.535 180.24l5.526 7.838-5.61 8.497"/><path fill-opacity=".4" fill="#2B6685" d="M644.202 198.803l2.72 7.095 1.816-3.383"/><path fill-opacity=".4" fill="#A8E0FB" d="M647.088 202.35l3.3 6.353 5.69-2.063"/><path fill-opacity=".4" fill="#2B6685" d="M651.583 201.113l.7 6.187 3.795-.66M646.47 194.677l8.04 6.436h-4.37"/><path fill-opacity=".4" fill="#A8E0FB" d="M657.232 205.527l3.382 6.723-3.794-3.547"/><path fill-opacity=".4" fill="#35799D" d="M610.882 208.888l-7.01 6.745 6.185-8.333"/><path fill-opacity=".4" fill="#A8E0FB" d="M595.377 201.113l.99 7.59-5.28 1.815M600.82 213.075l-4.454 7.426-5.278-2.31"/><path fill-opacity=".4" fill="#35799D" d="M595.954 212.25l-.66 6.106-10.144 4.784"/><path fill-opacity=".4" fill="#A8E0FB" d="M585.15 223.14h-5.608l4.04-6.352M575.088 215.633l-3.876 7.507-10.887-8.744 14.763 1.237"/><path fill-opacity=".4" fill="#A8E0FB" d="M571.047 218.768l.165 4.372-10.227-3.176"/><path fill-opacity=".5" fill="#2B6685" d="M520.247 219.964l5.36 12.5 2.887-5.53"/><path fill-opacity=".4" fill="#A8E0FB" d="M438.44 245.802l-22.68-8.8-19.382 8.25"/><path fill-opacity=".5" fill="#A8E0FB" d="M396.378 245.25l-6.874 12.102 31.34-11.78"/><path fill-opacity=".3" fill="#A8E0FB" d="M396.378 245.25l-6.874 12.102h-11.27M389.504 257.352h-11.27v4.538"/><path fill-opacity=".3" fill="#A8E0FB" d="M396.378 245.25l-18.144 7.564v4.538M378.234 252.814v9.076h-11.546M438.44 227.926l-2.614 11 3.027 6.325-.413-17.324"/><path fill-opacity=".4" fill="#A8E0FB" d="M438.853 231.363l16.082 12.514-11.274 2.75"/><path fill-opacity=".3" fill="#A8E0FB" d="M443.805 246.626l11.13-2.75 11.303 2.75"/><path fill-opacity=".5" fill="#A8E0FB" d="M455.022 248.632l7.047 3.274 14.672-2.85"/></g><path d="M501.488 172.06l.235.054.07.09 19.452-.09 5.604 5.473 19.958-1.53.086-.002.046.098 13.336-1.015 6.074 4.763 12.478-1.004 6.466 2.456 15.48.936 5.316 2.514 12.643-3.615 1.836 1.894 11.45-1.893 21.992 17.05 7.97 14.855-6.044 4.58-16.99-9.16-.058-.008v.092l-10.35 6.325-17.596 6.327-13.365-7.793.675 5.868-14.388 3.942-.02-.186-16.973 4.036-9.225-.73-.125.254-11.682 2.768-11.683.918-19.427 3.758-15.06 1.192v.184l-13.797 12.504-27.308 16.188-.293-.138.066.073 2.863 26.266.112.465-3.11 12.57-11.78 6.784-.018.024v-.014l-.024.014.02-.03-.02.03-13.143 7.554 12.03 29.553.54.732 12.812 2.594-.066.323 11.7 13.65-.137.12L512.48 391h19.134l2.97 15.346-38.756 56.43-48.54-8.91-50.095-5.774-.227-.066 2.02 20.162 9.53 22.733 3.477 22.826 16.116 58.42.182.086-3.876 30.04 7.9 18.71 4.89 7.03 140.45-49.996-16.923-21.204 66.475-39.6v9.004l6.994 23.885 28.004-2.557 115.394-42.84 24.078-2.577 14.433 10.725v14.233l-10.308 21.657-24.95 16.088-143.26 45.483-317.725 127.467-29.946 8.762-32.576-4.95-20.41-6.395-12.37-18.402-.21-.16.072-.046 24.297-16.348 140.01-53.677-9.122-27.172-22.11 1.667 1.44-34.185-.017-.03-.165.27-8.248-38.554-12.19-47.484-8.886-16.315-14.924-14.9-15.224-18.4-4.01-16.868-6.01-8.71v-11.736L270.22 400.37l1.67-15.95-.664-7.974-22.117 5.28 1.486-2.298-.027-.038-1.46 2.336-24.406 2.695-23.918 1.416-8.546 8.263-3.67 7.58-46.325-22.128 10.447-16.796 7.692-.826.346-.015 3.978-8.35-3.87-2.624-.108-.025 9.806-16.776 39.86-16.87 25.84-18.424 13.735-3.578-.355-9.76 30.24-30.205 11.637-7.242 36.65-9.69-.01-.143.87-.295 36.407-25.94 27.216-5.94 19.625-3.63 30.35-15.183 32.826-1.816 26.062-13.364zm49.023 234.456l.726 5.316 66.57 81.643 9.402 23.756-66.805 39.602-6.597-22.93-57.733-71.126 38.512-56.43 15.926.17zm-408.265-26.964l39.434 22.866-7.537 10.95-18.28 20.626.028.178-18.024 17.137.002.007.01.016h-.008l.01.066-.046-.06-14.734 2.303.03-.108-3.452-8.344-12.85 11.82-8.26 5.493-3.53-7.97-6.225-1.42-5.363 3.896-2.68-9.75-.235.21 4.262-13.476 45.934-26.1 11.515-28.342zm152.44 13.48l-.06-.054-2.33 9.393 2.33-9.227.06-.11zm-5.42 21.356l.045-.187-.045-.034v.222zM365.41 211.99l27.216-5.94-27.217 5.94z" fill-opacity=".2" fill="#F5FCFF"/><g opacity=".7" fill="#F5FCFF"><path d="M440.72 580.523l-5.566 10.107 9.662-1.238M471.03 584.442l-8.775 4.33 4.83 11.14M460.308 592.22l-8.775 4.332 4.83 11.138M481.4 578.667L472.623 583l4.828 11.136M487.644 587.625l-8.776 4.33 4.83 11.14M438.277 593.872l-8.775 4.332 4.83 11.137" fill-opacity=".7"/><path d="M454.79 617.538l-8.367-5.077-6.803 10.056" fill-opacity=".3"/><path d="M488.013 612.353l-8.365-5.077-6.804 10.054" fill-opacity=".4"/><path d="M501.094 599.39l-8.366-5.078-6.803 10.054M527.01 578.763l-8.365-5.077-6.803 10.054M531.135 532.56l-8.366-5.076-6.804 10.055" fill-opacity=".7"/><path d="M443.832 577.35l-8.366-5.078-6.803 10.054" fill-opacity=".4"/><path d="M19.558 787.964l-8.366-5.077-6.803 10.055" fill-opacity=".7"/><path fill-opacity=".4" d="M464.23 562.476l-6.19 3.815 4.508 3.92"/><path d="M443.61 591.456l5.978-1.856-4.742-4.125M132.822 751.315l18.144-2.945-4.83 10.606M448.997 512.945l-2.36 4.71 4.715.356M197.394 750.08l13.312.354-2.004 10.37" fill-opacity=".7"/><path fill-opacity=".4" d="M431.088 552.546l-3.184 10.37 12.02-3.184"/><path fill-opacity=".4" d="M427.908 547.242l-5.657 6.13 9.192 3.535"/><path d="M446.643 585.722l1.89 12.966 6.832-4.006M350.907 644.124l-6.128 4.24 9.19 4.48" fill-opacity=".7"/><path d="M476.567 600.16l-8.957 1.65 6.718 6.838M475.86 567.397l-6.48 1.41 5.89 3.54M456.774 563.507l-8.012 5.185 7.658 4.83" fill-opacity=".4"/><path d="M439.808 586.372l-8.012 5.185 7.658 4.83M458.424 583.072l-8.012 5.185 7.657 4.83" fill-opacity=".7"/><path d="M461.96 573.29l-8.013 5.185 7.657 4.83M452.298 603.58l-8.013 5.185 7.658 4.83M469.146 601.34l-8.013 5.186 7.658 4.83" fill-opacity=".4"/><path d="M492.357 560.915l-8.013 5.185 7.658 4.83M471.62 591.56l-8.012 5.184 7.658 4.83M480.103 590.498l-8.012 5.185 7.66 4.83M491.885 580.48l-8.012 5.185 7.658 4.83M81.28 762.926l-8.013 5.186 7.657 4.83M334.827 771.177l-8.012 5.185 7.658 4.83M429.56 586.845l-8.014 5.185 7.658 4.83" fill-opacity=".7"/><path d="M420.605 574.706l-8.012 5.185 7.657 4.832" fill-opacity=".4"/><path d="M457.13 618.433l-8.013 5.185 7.658 4.83" fill-opacity=".1"/><path d="M520.28 588.378l-8.01 5.186 7.656 4.83M518.16 555.378l-8.01 5.185 7.657 4.83M481.52 568.814L473.506 574l7.657 4.83" fill-opacity=".7"/><path d="M454.774 597.1l-8.013 5.186 7.66 4.83M462.432 606.41l-8.013 5.187 7.657 4.83M470.915 596.04l-8.012 5.185 7.658 4.83" fill-opacity=".4"/><path d="M450.532 587.672l-8.013 5.185 7.657 4.83M457.955 575.886l-8.012 5.186 7.657 4.83M259.608 637.352l-8.013 5.186 7.658 4.83" fill-opacity=".7"/><path fill-opacity=".4" d="M443.93 575.647l-3.535 4.125 5.893.235"/><path d="M232.39 603.815l4.123 11.08-13.196.94M306.474 646.44l4.124 11.08-13.196.94M316.922 601.062l4.124 11.08-13.196.94M238.02 562.286l4.125 11.08-13.196.94" fill-opacity=".7"/><path d="M344.69 555.687l4.123 11.08-13.196.94" fill-opacity=".4"/><path d="M313.9 709.692l4.125 11.08-13.196.94" fill-opacity=".5"/><path fill-opacity=".4" d="M450.762 573.997l-4.124 1.41 4.714 2.95"/><path d="M202.69 823.39l-4.124 1.41 4.713 2.95" fill-opacity=".7"/><path d="M464.194 597.805l-4.124 1.41 4.713 2.95M458.538 607.94l-4.123 1.412 4.713 2.95M488.7 602.99l-4.124 1.412 4.714 2.95" fill-opacity=".4"/><path d="M518.39 509.88l-4.123 1.41 4.713 2.95" fill-opacity=".7"/><path d="M216.594 712.013l-4.124 1.41 4.714 2.95" fill-opacity=".5"/><path d="M419.774 534.75l-4.123 1.41 4.714 2.95M431.557 528.032l-4.124 1.41 4.714 2.95M426.255 547.832l-4.124 1.41 4.714 2.95" fill-opacity=".4"/><path d="M473.62 589.437l-4.124 1.41 4.713 2.95M463.84 592.03l-4.123 1.41 4.713 2.95" fill-opacity=".7"/><path d="M227.32 672.764l-4.125 1.41 4.714 2.95" fill-opacity=".5"/><path d="M493.295 584.958l-4.123 1.41 4.713 2.95M490.573 576.832l-5.432 4.27 8.558 1.075" fill-opacity=".7"/><path d="M286.93 706.834l-5.43 4.27 8.557 1.075" fill-opacity=".1"/><path d="M496.697 549.135l-5.432 4.27 8.557 1.074M443.328 597.575l-5.432 4.27 8.557 1.075" fill-opacity=".7"/><path d="M452.4 611.72l-5.432 4.27 8.557 1.073" fill-opacity=".3"/><path d="M462.647 597.694l-5.432 4.27 8.557 1.074" fill-opacity=".4"/><path d="M446.98 591.684l-5.43 4.27 8.556 1.074M428.012 593.923l-5.432 4.27 8.557 1.075" fill-opacity=".7"/><path d="M192.787 659.866l-5.432 4.27 8.557 1.075" fill-opacity=".5"/><path d="M475.493 604.413l-5.432 4.27 8.558 1.075M475.493 597.106l-5.432 4.27 8.558 1.075" fill-opacity=".4"/><path d="M478.91 604.296l-5.43 4.27 8.556 1.075" fill-opacity=".4"/><path d="M504.36 596.988l-5.433 4.27 8.557 1.075M501.414 585.32l-5.432 4.27 8.558 1.075" fill-opacity=".7"/><path d="M501.414 585.32l-5.432 4.27 8.558 1.075" fill-opacity=".7"/><path fill-opacity=".4" d="M422.25 573.758l8.368-.94-1.415 4.36"/><path fill-opacity=".7" d="M483.752 574.702l-13.43 1.06 8.48 8.72M120.452 725.802l-1.295 10.725 8.248-2.95"/><path fill-opacity=".7" d="M480.807 571.283l-2.354 7.78 6.948 1.65M460.365 758.093l-6.01 2.24 4.595 3.655M159.865 724.444l-.59 9.076 11.192-.236M441.34 595.33l-.59 9.074 11.193-.235M484.463 589.082l-.59 9.075 11.192-.235M419.25 724.622l-.59 9.075 11.192-.235M503.45 570.855l-8.395 3.5 5.18 9.925"/><path d="M469.16 609.63l-8.393 3.502 5.18 9.924" fill-opacity=".4"/><path d="M432.305 606.365l-4.376 7.972 10.238 4.525M135.39 749.515l-4.668 9.2 5.842 2.436M194.95 744.843l-5.566 10.106 9.66-1.238" fill-opacity=".7"/><path d="M210.69 726.073l-8.776 4.332 4.83 11.138" fill-opacity=".5"/><path d="M237.362 769.744l-8.775 4.332 4.828 11.138M274.118 750.824l-8.776 4.332 4.83 11.138" fill-opacity=".7"/><path d="M277.07 762.808l-8.774 4.332 4.83 11.138M165.567 759.155l-8.775 4.332 4.83 11.137M133.733 754.456l-8.366-5.077-6.803 10.053M129.533 807.495l-8.366-5.077-6.803 10.054" fill-opacity=".7"/><path d="M241.562 707.132l-6.19 3.816 4.508 3.92" fill-opacity=".1"/><path d="M210.21 740.65l5.98-1.856-4.742-4.125" fill-opacity=".5"/><path d="M173.89 730.693l13.313.354-2.005 10.37M172.95 742.718l-3.185 10.37 12.02-3.184M91.452 752.515l1.89 12.966 6.832-4.005M171.536 724.705l-6.128 4.24 9.192 4.48M210.182 747.704l-8.957 1.65 6.718 6.84" fill-opacity=".7"/><path d="M227.89 687.852l-6.478 1.41 5.89 3.54" fill-opacity=".1"/><path d="M212.933 724.666l-8.013 5.185 7.658 4.832" fill-opacity=".5"/><path d="M88.192 740.654l-8.013 5.185 7.657 4.83M198.634 742.578l-8.012 5.186 7.657 4.83" fill-opacity=".7"/><path d="M239.29 717.946l-8.01 5.185 7.657 4.832" fill-opacity=".1"/><path d="M190.31 754.012l-8.013 5.186 7.658 4.83M209.356 760.847l-8.013 5.186 7.658 4.83M197.39 741.736l-8.013 5.186 7.657 4.83M143.106 772.242l-8.012 5.185 7.657 4.83" fill-opacity=".7"/><path d="M307.48 741.206l-8.014 5.185 7.658 4.83M232.095 739.987l-8.012 5.185 7.658 4.83M233.315 692.53l-8.013 5.184 7.658 4.83" fill-opacity=".1"/><path d="M234.5 741.205l-8.012 5.185 7.657 4.83" fill-opacity=".1"/><path d="M445.792 694.77l-8.012 5.184 7.657 4.83M125.147 772.284l-8.012 5.185 7.658 4.83" fill-opacity=".7"/><path d="M211.125 755.547l-8.012 5.185 7.658 4.83" fill-opacity=".1"/><path d="M177.822 752.955l-8.012 5.185 7.657 4.83" fill-opacity=".7"/><path d="M198.165 735.393l-8.012 5.186 7.657 4.83" fill-opacity=".5"/><path d="M198.165 735.393l-8.012 5.186 7.657 4.83" fill-opacity=".5"/><path d="M184.14 735.154l-3.535 4.125 5.893.234M164.897 736.37l4.124 11.08-13.195.94" fill-opacity=".7"/><path d="M190.972 733.504l-4.124 1.41 4.714 2.95" fill-opacity=".5"/><path d="M235.28 719.714l-4.122 1.41 4.713 2.95M204.404 757.312l-4.124 1.41 4.713 2.95" fill-opacity=".1"/><path d="M196.55 758.373l-4.124 1.41 4.714 2.95M228.91 762.498l-4.124 1.41 4.713 2.95" fill-opacity=".7"/><path d="M254.52 750.32l-4.125 1.41 4.714 2.95" fill-opacity=".1"/><path d="M204.05 751.537l-4.123 1.41 4.713 2.95M159.553 751.694l-4.123 1.41 4.713 2.95M271.172 764.265l-4.124 1.41 4.713 2.95" fill-opacity=".7"/><path d="M267.905 721.49l-5.432 4.27 8.557 1.073M279.64 725.81l-5.43 4.27 8.556 1.075" fill-opacity=".1"/><path d="M139.537 767.81l-5.43 4.27 8.556 1.073M171.24 766.55l-5.43 4.27 8.556 1.076M96.47 745.142l-5.433 4.27 8.558 1.075M184.127 742.234l-5.432 4.27 8.557 1.074" fill-opacity=".7"/><path d="M226.424 749.07l-5.432 4.27 8.557 1.074" fill-opacity=".1"/><path d="M234.395 765.413l-5.432 4.27 8.558 1.075" fill-opacity=".7"/><path d="M229.843 748.952l-5.432 4.27 8.558 1.075M229.734 725.408l-13.43 1.06 8.482 8.72M228.367 730.48l-1.295 10.724 8.248-2.95M245.48 748.39l-2.354 7.78 6.948 1.65" fill-opacity=".1"/><path d="M201.813 738.57l-6.008 2.24 4.594 3.654" fill-opacity=".5"/><path d="M694.743 600.05l-5.567 10.107 9.662-1.237M832.132 550.343l-8.775 4.33 4.83 11.14M598.25 624.733l5.98-1.857-4.744-4.125M745.43 468.332l13.312.354-2.004 10.37M495.01 695.28l-3.184 10.37 12.02-3.185M592.568 636.016l-6.128 4.24 9.192 4.48M720.694 624.774l-8.957 1.65 6.717 6.84M732.52 719.716l-8.013 5.185 7.658 4.832M705.442 607.69l-8.012 5.184 7.657 4.83M798.22 597.905l-8.012 5.185 7.658 4.83M705.842 642.734l-8.013 5.185 7.657 4.83M813.597 573.63l-8.012 5.184 7.658 4.83M579.883 665.503l-8.013 5.185 7.658 4.83M787.03 572.45l-8.012 5.186 7.658 4.83M836.513 486.648l-8.012 5.186 7.66 4.83M773.004 572.212l-3.534 4.125 5.893.235M431.293 721.11l4.123 11.08-13.195.94M779.837 570.562l-4.124 1.41 4.714 2.95M793.27 594.37l-4.125 1.41 4.714 2.95M792.916 588.595l-4.124 1.41 4.714 2.95M561.614 664.24l-4.124 1.412 4.714 2.95M772.992 579.29l-5.43 4.27 8.556 1.076M758.797 591.492l-5.432 4.27 8.557 1.074M807.985 600.86l-5.43 4.27 8.556 1.075" fill-opacity=".7"/><path d="M695.424 609.04l-6.008 2.24 4.593 3.656M354.472 736.25l-8.776 4.33 4.83 11.14M361.688 604.382l5.98-1.856-4.743-4.125M108.74 699.48l13.31.353-2.003 10.37" fill-opacity=".7"/><path d="M259.822 663.652l-3.184 10.37 12.02-3.184M271.6 673.552l-6.127 4.24 9.192 4.48" fill-opacity=".5"/><path d="M333.07 588.336l-8.956 1.65 6.717 6.84" fill-opacity=".7"/><path d="M392.727 734.84l-8.012 5.187 7.657 4.83M376.778 720.028l-8.012 5.185 7.658 4.83M306.206 670.216l-8.012 5.186 7.658 4.83" fill-opacity=".5"/><path d="M366.415 642.167l-8.013 5.185 7.658 4.83" fill-opacity=".7"/><path d="M292.18 669.977l-3.534 4.125 5.893.235" fill-opacity=".5"/><path d="M225.93 710.796l4.123 11.08-13.196.94" fill-opacity=".1"/><path d="M299.013 668.327l-4.123 1.41 4.713 2.95" fill-opacity=".5"/><path d="M59.32 757.634l-5.433 4.27 8.557 1.074" fill-opacity=".7"/><path d="M315.63 729.77l-6.007 2.24 4.594 3.655" fill-opacity=".5"/><path d="M249.502 695.433l-.59 9.075 11.192-.235" fill-opacity=".1"/><path d="M336.806 673.615l-5.567 10.107 9.66-1.238" fill-opacity=".5"/><path d="M342.373 635.32l-8.775 4.332 4.83 11.138" fill-opacity=".7"/><path d="M297.252 668.403l-8.776 4.33 4.83 11.14" fill-opacity=".5"/><path d="M373.247 616.38l-6.19 3.815 4.507 3.92M351.24 636.283l5.98-1.856-4.743-4.125M314.92 626.325l13.312.355-2.004 10.37M313.978 638.35l-3.183 10.372 12.02-3.185M303.22 633.952l-6.127 4.24 9.19 4.48M351.21 643.337l-8.955 1.65 6.717 6.84" fill-opacity=".7"/><path d="M285.786 704.59l-8.012 5.187 7.658 4.83" fill-opacity=".1"/><path d="M339.94 570.7l-8.012 5.185 7.657 4.83" fill-opacity=".4"/><path d="M370.975 627.193l-8.012 5.186 7.658 4.83" fill-opacity=".7"/><path d="M264.342 676.97l-8.012 5.185 7.657 4.83" fill-opacity=".5"/><path d="M363.78 649.234l-8.013 5.185 7.658 4.83M365 601.776l-8.014 5.186 7.658 4.83M298.007 601.777l-8.012 5.185 7.658 4.83M390.535 622.718l-8.012 5.185 7.658 4.83" fill-opacity=".7"/><path d="M265.008 687.345l-8.012 5.185 7.658 4.83" fill-opacity=".1"/><path d="M309.506 662.202l-8.012 5.186 7.658 4.83" fill-opacity=".5"/><path d="M329.85 644.64l-8.013 5.186 7.657 4.83" fill-opacity=".7"/><path d="M329.85 644.64l-8.013 5.186 7.657 4.83M315.823 644.4l-3.534 4.126 5.892.236M314.724 655.792l4.123 11.08-13.196.94M322.656 642.75l-4.123 1.412 4.713 2.95M366.965 628.96l-4.123 1.412 4.713 2.95" fill-opacity=".7"/><path d="M300.9 686.91l-4.125 1.41 4.713 2.95" fill-opacity=".1"/><path d="M315.784 549.09l-4.124 1.412 4.714 2.95" fill-opacity=".4"/><path d="M343.317 644.168l-4.123 1.41 4.713 2.95" fill-opacity=".7"/><path d="M239.24 693.785l-4.125 1.41 4.714 2.95" fill-opacity=".1"/><path d="M200.098 697.987l-4.124 1.41 4.713 2.95" fill-opacity=".5"/><path d="M54.344 754.57l-6.19 3.817 4.507 3.92M.724 754.263l5.98-1.856-4.743-4.125M58.292 766.33l-8.013 5.185 7.657 4.83M169.186 703.92l-8.012 5.186 7.658 4.83M91.36 740.338l-4.123 1.41 4.713 2.95" fill-opacity=".7"/><path d="M60.25 773.674l-13.43 1.06 8.482 8.72M18.88 744.092l-1.294 10.725 8.248-2.95" fill-opacity=".7"/><path d="M178.425 699.347l-93.11 58.898 76.948 46.63M336.54 733.96l36.24 101.003L484.614 729.61" fill-opacity=".3"/><path d="M201.4 649.584l29.11 64.144 42.923-50.077M591.505 611.636l29.11 64.144 42.92-50.077M723.464 386.404l29.11 64.145 42.92-50.078M441.333 552.765l-26.81 50.597 64.812 4.7M215.353 722.72l-26.81 50.597 64.812 4.7M42.982 728.495l-26.81 50.597 64.812 4.7M126.866 653.442l-18.308 35.722 42.163 2.207" fill-opacity=".2"/><path d="M239.856 675.717l-18.308 35.723 42.163 2.207" fill-opacity=".2"/><path d="M239.856 675.717l-18.308 35.723 42.163 2.207M337.175 627.87l-18.307 35.723 42.162 2.207M278.62 617.145l-18.31 35.722 42.164 2.208M442.797 540.02l21.686 33.778 23.094-35.344M582.178 680.273l21.686 33.78 23.095-35.345M229.2 782.58l21.686 33.78 23.095-35.345M150.854 745.46l21.686 33.777 23.094-35.344M64.26 716.583l21.686 33.778 23.095-35.342" fill-opacity=".2"/><path d="M71.7 617.568l4.125 11.08-13.196.94M75.48 742.46l-.59 9.076 11.193-.235" fill-opacity=".7"/><path d="M212.02 714.41l-4.125 1.412 4.714 2.95M309.38 671.115l-4.124 1.41 4.713 2.95" fill-opacity=".5"/><path d="M315.81 651.48l-5.432 4.27 8.557 1.075" fill-opacity=".7"/><path d="M267.938 680.043l-5.432 4.27 8.557 1.074" fill-opacity=".5"/><path d="M297.2 651.874l-5.432 4.27 8.557 1.075M188.22 615.68l-13.43 1.06 8.483 8.72M360.05 639.726l-1.294 10.726 8.248-2.95M325.754 501.982l-2.354 7.78 6.948 1.65M333.498 647.817l-6.01 2.24 4.595 3.655M381.186 604.68l-.59 9.076 11.192-.235M126.293 767.762l-.59 9.075 11.192-.235M175.25 752.125l-.59 9.075 11.193-.235M119.32 771.443l-4.668 9.2 5.842 2.436" fill-opacity=".7"/></g></svg>
