<?xml version="1.0" encoding="UTF-8" standalone="no"?>
<svg width="34px" height="34px" viewBox="0 0 34 34" version="1.1" xmlns="http://www.w3.org/2000/svg" xmlns:xlink="http://www.w3.org/1999/xlink">
    <!-- Generator: Sketch 40.3 (33839) - http://www.bohemiancoding.com/sketch -->
    <title>Combined Shape</title>
    <desc>Created with Sketch.</desc>
    <defs></defs>
    <g stroke="none" stroke-width="1" fill="none" fill-rule="evenodd">
        <g id="STIJL-GEIT" transform="translate(-312.000000, -5362.000000)" fill="#FFFFFF">
            <g id="icons" transform="translate(207.000000, 5297.000000)">
                <path d="M128.923026,81.8519585 L138.11733,72.6576553 C138.899214,71.8757707 138.896585,70.6123137 138.115687,69.8314155 L133.872502,65.5882303 C133.08607,64.8017991 131.826253,64.8065966 131.046262,65.5865875 L121.851959,74.7808907 L112.657655,65.5865875 C111.875771,64.8047029 110.612314,64.8073321 109.831416,65.5882303 L105.58823,69.8314155 C104.801799,70.6178467 104.806597,71.8776644 105.586587,72.6576553 L114.780891,81.8519585 L105.586587,91.0462618 C104.804703,91.8281464 104.807332,93.0916033 105.58823,93.8725016 L109.831416,98.1156868 C110.617847,98.902118 111.877664,98.8973205 112.657655,98.1173296 L121.851959,88.9230263 L131.046262,98.1173296 C131.828146,98.8992142 133.091603,98.896585 133.872502,98.1156868 L138.115687,93.8725016 C138.902118,93.0860704 138.897321,91.8262527 138.11733,91.0462618 L128.923026,81.8519585 Z" id="Combined-Shape"></path>
            </g>
        </g>
    </g>
</svg>