<?xml version="1.0" encoding="UTF-8" standalone="no"?>
<svg width="35px" height="34px" viewBox="0 0 35 34" version="1.1" xmlns="http://www.w3.org/2000/svg" xmlns:xlink="http://www.w3.org/1999/xlink">
    <!-- Generator: Sketch 40.1 (33804) - http://www.bohemiancoding.com/sketch -->
    <title>hamburger menu</title>
    <desc>Created with Sketch.</desc>
    <defs></defs>
    <g stroke="none" stroke-width="1" fill="none" fill-rule="evenodd">
        <g id="MENU-1" transform="translate(-44.000000, -42.000000)" fill="#031E2A">
            <path d="M44,43.9981014 C44,42.8945804 44.9003455,42 46.0074612,42 L76.9925388,42 C78.101229,42 79,42.8867064 79,43.9981014 L79,48.0018986 C79,49.1054196 78.0996545,50 76.9925388,50 L46.0074612,50 C44.898771,50 44,49.1132936 44,48.0018986 L44,43.9981014 Z M44,56.9981014 C44,55.8945804 44.9003455,55 46.0074612,55 L76.9925388,55 C78.101229,55 79,55.8867064 79,56.9981014 L79,61.0018986 C79,62.1054196 78.0996545,63 76.9925388,63 L46.0074612,63 C44.898771,63 44,62.1132936 44,61.0018986 L44,56.9981014 Z M44,69.9981014 C44,68.8945804 44.9003455,68 46.0074612,68 L76.9925388,68 C78.101229,68 79,68.8867064 79,69.9981014 L79,74.0018986 C79,75.1054196 78.0996545,76 76.9925388,76 L46.0074612,76 C44.898771,76 44,75.1132936 44,74.0018986 L44,69.9981014 Z" id="hamburger-menu"></path>
        </g>
    </g>
</svg>