<svg viewBox="0 0 50 50" xmlns="http://www.w3.org/2000/svg" fill-rule="evenodd" clip-rule="evenodd" stroke-linejoin="round" stroke-miterlimit="1.414">
  <path d="M10.766 36.177c-.416.412-.626.987-.58 1.57.048.586.347 1.118.82 1.464l5.42 3.93c.46.34 1.043.46 1.603.34.55-.123 1.03-.476 1.31-.973 1.5-2.66 4.11-7.31 5.16-9.17.08-.16.26-.257.44-.257.18.003.35.11.432.27.967 1.86 3.35 6.455 4.75 9.147.27.517.745.89 1.312 1.026.566.133 1.16.017 1.634-.325 1.636-1.186 4-2.895 5.644-4.08.47-.34.773-.873.82-1.456.046-.58-.16-1.156-.57-1.572l-7.19-7.26c-.13-.13-.18-.323-.125-.5.06-.18.21-.31.392-.343 2.102-.365 7.24-1.255 10.22-1.775.57-.097 1.07-.44 1.367-.93.305-.495.375-1.094.2-1.64-.594-1.89-1.457-4.607-2.055-6.507-.178-.555-.586-1.006-1.122-1.235-.535-.23-1.145-.213-1.67.043-2.702 1.335-7.297 3.596-9.18 4.524-.167.08-.365.065-.51-.044-.15-.11-.23-.29-.207-.475.29-2.093 1.006-7.22 1.42-10.214.08-.57-.092-1.15-.473-1.586-.38-.435-.927-.687-1.506-.687h-6.77c-.578 0-1.13.25-1.51.69-.38.44-.55 1.024-.466 1.598l1.49 10.38c.03.183-.05.366-.2.48-.15.107-.35.123-.516.04-1.934-.962-6.707-3.33-9.473-4.702-.52-.254-1.128-.274-1.664-.052-.536.225-.948.672-1.126 1.223l-2.11 6.45c-.18.545-.114 1.143.178 1.64.295.493.784.84 1.35.948 2.945.56 7.998 1.522 10.072 1.914.18.033.33.165.38.344.056.175.01.37-.123.5-1.49 1.492-5.13 5.128-7.275 7.275z" fill="#55C271" fill-rule="nonzero"/>
</svg>
