<?xml version="1.0" encoding="UTF-8" standalone="no"?>
<svg
   version="1.1"
   id="svg2"
   width="365.82266"
   height="357.73734"
   viewBox="0 0 365.82266 357.73734"
   sodipodi:docname="miraski-ster.ai"
   xmlns:inkscape="http://www.inkscape.org/namespaces/inkscape"
   xmlns:sodipodi="http://sodipodi.sourceforge.net/DTD/sodipodi-0.dtd"
   xmlns="http://www.w3.org/2000/svg"
   xmlns:svg="http://www.w3.org/2000/svg">
  <defs
     id="defs6" />
  <sodipodi:namedview
     id="namedview4"
     pagecolor="#ffffff"
     bordercolor="#000000"
     borderopacity="0.25"
     inkscape:showpageshadow="2"
     inkscape:pageopacity="0.0"
     inkscape:pagecheckerboard="0"
     inkscape:deskcolor="#d1d1d1" />
  <g
     id="g8"
     inkscape:groupmode="layer"
     inkscape:label="miraski-ster"
     transform="matrix(1.3333333,0,0,-1.3333333,0,357.73733)">
    <g
       id="g10"
       transform="translate(214.5078,110.7471)">
      <path
         d="M 0,0 25.568,6.475 7.899,30.537 29.877,36.089 17.731,73.479 -3.32,65.138 l 0.212,29.578 -24.544,-9.612 0.635,-28.847 -36.588,-14.987 3.138,39.296 27.798,8.283 1.739,26.314 -28.347,-9.361 1.516,22.613 h -39.312 l 1.424,-22.6 -28.066,9.348 1.554,-26.314 27.632,-8.308 2.923,-39.041 -36.02,14.757 0.633,28.847 -24.537,9.612 0.212,-29.578 -21.052,8.341 -12.151,-37.39 21.976,-5.552 -17.662,-24.062 25.562,-6.475 16.472,23.872 38.422,-9.18 -25.74,-30.359 -27.239,9.517 -16.727,-20.376 28.199,-8.93 -14.431,-17.443 31.807,-23.114 12.063,19.184 17.429,-24.236 14.06,22.318 -17.612,23.032 20.621,33.757 20.621,-33.757 -17.609,-23.032 14.053,-22.318 17.433,24.236 12.065,-19.184 31.809,23.114 -14.439,17.443 28.197,8.93 -16.724,20.376 -27.239,-9.517 -25.737,30.359 38.425,9.18 z"
         style="fill:#29aae2;fill-opacity:1;fill-rule:nonzero;stroke:none"
         id="path12" />
    </g>
    <g
       id="g14"
       transform="translate(141.0371,51.9629)">
      <path
         d="M 0,0 13.252,-21.049 30.691,3.193 42.908,-16.236 73.518,6.01 58.897,23.673 87.104,32.606 71.33,51.825 44.099,42.309 17.334,73.888 l 39.976,9.546 0.261,-0.391 16.195,-23.47 24.11,6.096 -17.665,24.07 22.251,5.62 -11.687,35.991 -21.317,-8.447 0.212,29.586 -23.149,-9.067 0.636,-28.838 -0.437,-0.18 -37.627,-15.412 0.083,1.117 3.181,39.767 27.789,8.281 1.639,24.813 -28.345,-9.362 1.532,22.898 h -37.846 l 1.448,-22.884 -28.07,9.348 1.468,-24.813 27.622,-8.311 0.044,-0.475 3.002,-40.149 -37.491,15.359 0.633,28.837 -23.146,9.068 0.216,-29.586 -21.317,8.447 -11.691,-35.992 22.248,-5.62 -0.61,-0.823 -17.048,-23.248 24.106,-6.098 16.466,23.862 39.973,-9.547 -0.722,-0.855 -26.049,-30.724 -27.235,9.516 -15.767,-19.218 28.2,-8.934 -14.614,-17.662 30.612,-22.248 12.221,19.432 17.429,-24.243 13.258,21.047 -17.605,23.025 0.245,0.403 L -3.84,58.138 17.615,23.017 Z M 13.176,-23.514 -1.68,0.072 15.936,23.109 -3.854,55.503 -23.64,23.109 -6.021,0.072 -6.279,-0.332 -20.886,-23.514 -38.315,0.727 l -11.916,-18.946 -0.591,0.434 -32.404,23.543 14.246,17.225 -28.193,8.927 17.678,21.536 27.242,-9.521 24.714,29.151 -36.872,8.798 -16.479,-23.875 -27.023,6.843 0.613,0.822 17.049,23.243 -21.694,5.481 12.605,38.788 20.786,-8.233 -0.215,29.576 25.939,-10.16 -0.636,-28.855 34.555,-14.152 -2.8,37.449 -27.64,8.314 -1.643,27.806 28.061,-9.34 -1.405,22.31 h 40.791 l -1.502,-22.328 28.349,9.362 -1.836,-27.807 -27.802,-8.286 -3.016,-37.709 35.116,14.381 -0.637,28.855 25.939,10.16 -0.211,-29.576 20.79,8.233 L 104.238,94.388 82.54,88.907 100.209,64.842 73.18,57.999 72.911,58.393 56.714,81.871 19.84,73.073 44.546,43.919 71.787,53.443 89.463,31.904 61.272,22.977 75.528,5.752 74.926,5.32 42.527,-18.219 30.615,0.727 Z"
         style="fill:#ffffff;fill-opacity:1;fill-rule:nonzero;stroke:none"
         id="path16" />
    </g>
  </g>
</svg>
