<svg xmlns="http://www.w3.org/2000/svg" width="764" height="348" viewBox="0 0 764 348" xmlns:xlink="http://www.w3.org/1999/xlink"><defs><path id="a" d="M1.297 2.583H764.65v348.953H1.296z"/></defs><g fill="none" fill-rule="evenodd"><path d="M.297.62H763.65v348.953H.296z"/><g transform="translate(-1 -1.963)"><mask id="b" fill="#fff"><use xlink:href="#a"/></mask><g mask="url(#b)"><path fill="#55C271" d="M466.587 89.91c8.664-19.313 26.618-33.753 48.672-37.246l249.39-39.5v256.768c0 18.756-13.64 34.724-32.163 37.658l-265.9 42.115v-97.158L1.297 326.1V170.91v-66.18c0-16.386 11.915-30.34 28.1-32.9 100.648-15.943 437.19-69.247 437.19-69.247V89.91z"/><path fill="#FFF" d="M32.947 126.728c1.004.21 2.033.28 3.058.3 1.357.025 2.717-.048 4.066-.193 1.148-.123 2.293-.288 3.422-.537.917-.2 1.83-.458 2.694-.83.196-.084.387-.176.576-.273.875-.453 1.77-1.11 2.064-2.1.097-.323.118-.658.105-.994-.012-.418-.06-.892-.368-1.21-.283-.292-.69-.465-1.064-.604-.684-.257-1.404-.417-2.12-.556-1.35-.264-2.71-.414-4.068-.618-.333-.055-.665-.11-.996-.17-2.46-.46-4.97-1.174-6.95-2.772-.3-.24-.582-.5-.85-.776-.973-1.013-1.678-2.247-2.126-3.576-.364-1.074-.566-2.195-.666-3.324-.14-1.575-.118-3.178.16-4.74.414-2.347 1.418-4.558 2.932-6.403 2.57-3.13 6.342-5.016 10.162-6.147.626-.186 1.258-.354 1.892-.503.833-.197 1.674-.367 2.517-.51.944-.16 1.89-.295 2.84-.402 1.622-.186 3.257-.3 4.89-.283 1.437.016 2.886.123 4.275.513l1.312.42v10.094l-2.394.38c-.33-.094-.328-.1-.645-.18-.18-.043-.36-.077-.542-.11-1.06-.17-2.137-.218-3.21-.216-1.177.005-2.356.08-3.525.202-.88.094-1.758.215-2.63.377-.894.165-1.784.377-2.64.69-.19.07-.378.143-.564.225-.162.07-.32.15-.48.23-.63.33-1.31.8-1.544 1.504-.084.25-.103.513-.09.775.014.345.07.704.33.953.29.275.687.438 1.054.57.723.26 1.485.418 2.24.557 1.108.2 2.227.324 3.34.487.39.063.783.126 1.174.194.372.07.746.142 1.116.223 2.643.572 5.365 1.523 7.275 3.524.938.983 1.622 2.177 2.054 3.46.384 1.154.578 2.364.66 3.577.12 1.805.02 3.63-.378 5.4-.56 2.5-1.724 4.836-3.39 6.78-.403.47-.833.914-1.284 1.336-3.078 2.87-7.097 4.514-11.16 5.407-.865.19-1.735.344-2.607.472-.924.138-1.854.25-2.784.34-1.527.144-3.06.222-4.595.204-1.388-.018-2.78-.11-4.14-.425l-1.398-.37v-10.157l2.37-.375c.32.08.318.087.635.16zm71.732-.097l-.205.347-13.19 2.088-2.773-8.276-12.48 1.974-2.713 9.146-12.432 1.968-.62-.723 14.964-46.76 14.18-2.248c5.09 14.163 10.177 28.324 15.267 42.484zm26.918-25.993c.226.382.45.767.676 1.153l-.008-.967-.002-.917V77.362l11.873-1.88.254.22v44.95L131.6 122.68l-12.737-20.8c-.32-.546-.64-1.09-.958-1.636l-.17-.29.007.984.002.896v23.04l-11.873 1.88-.255-.217V81.583l12.97-2.054 12.56 20.33c.15.258.3.517.453.777zm89.128-37.027v10.527l-12.3 1.946v34.428l-12.654 2.005-.257-.217V78.13l-12.043 1.907-.257-.22v-1.965L173.11 93.207l16.057 19.403-.382 1.013-13.815 2.188-12.248-15.116v17.056l-12.656 2.004-.257-.218V74.582l12.656-2.004.256.218v16.476l12.08-18.648 9.74-1.543 35.927-5.69.256.22zM82.154 102.306c-.31 1.12-.62 2.24-.96 3.353l-1.752 5.84 5.65-.895-1.893-5.71c-.318-1.007-.617-2.02-.915-3.032l-.008-.02c-.042.154-.08.308-.123.463zm193.704-2.788l-.204.346-13.19 2.088-2.773-8.276-12.48 1.978-2.71 9.143-12.433 1.97-.62-.725 14.964-46.76 14.183-2.245c5.087 14.16 10.175 28.32 15.265 42.48zm39.712-50.93v44.954l-12.792 2.025-12.738-20.8-.96-1.636-.17-.287.008.982.003.896v23.043l-11.87 1.878-.256-.216V54.47l12.97-2.054 12.56 20.33.96 1.64.172.29-.01-.966-.003-.914V50.25l11.873-1.882.254.22zm39.013-6.178v10.524l-12.3 1.95V89.31l-12.654 2.005-.258-.22V56.927l-12.044 1.91-.256-.22V48.09l37.254-5.9.257.22zm24.4-4.367c2.14.03 4.274.31 6.307.996 1.255.423 2.46.994 3.568 1.72.752.492 1.457 1.05 2.104 1.67.535.512 1.03 1.062 1.483 1.647.307.398.595.806.865 1.23 2.116 3.352 2.95 7.357 3.094 11.274.026.656.03 1.31.018 1.97-.02 1.185-.097 2.372-.236 3.55-.183 1.536-.47 3.06-.877 4.55-.717 2.62-1.804 5.142-3.287 7.42-1.226 1.885-2.72 3.593-4.433 5.05-2.038 1.734-4.375 3.102-6.866 4.076-1.894.742-3.872 1.255-5.882 1.575-1.475.237-2.97.373-4.467.378-2.145.008-4.304-.26-6.35-.917-1.266-.407-2.484-.963-3.605-1.673-.828-.524-1.604-1.13-2.31-1.808-.535-.51-1.03-1.064-1.484-1.65-.306-.4-.594-.81-.862-1.235-2.122-3.364-2.95-7.383-3.096-11.313-.024-.655-.03-1.312-.016-1.967.018-1.08.084-2.156.202-3.228.167-1.535.44-3.06.833-4.556.642-2.443 1.606-4.806 2.913-6.973.97-1.603 2.125-3.097 3.445-4.427.922-.93 1.926-1.782 2.995-2.544 4.45-3.176 9.94-4.703 15.373-4.81.286-.003.283-.003.57-.003zm-125.65 37.152c-.31 1.12-.62 2.24-.96 3.35l-1.752 5.843 5.652-.893-1.894-5.714c-.317-1.005-.615-2.02-.914-3.03l-.005-.018-.127.463zm185.303-46.1V74.05l-12.796 2.026-12.737-20.8c-.317-.544-.637-1.09-.96-1.637l-.17-.29.008.983.004.9V78.27l-11.87 1.882-.257-.22V34.978l12.97-2.054 12.56 20.33.96 1.64.172.29-.01-.966-.002-.914V30.757l11.87-1.878c.088.07.17.143.258.216zm-62.463 19.9c-.927.023-1.855.16-2.746.423-.63.186-1.244.443-1.818.765-.383.215-.747.46-1.09.73-2.04 1.613-3.2 4.062-3.815 6.533-.105.424-.197.85-.273 1.28-.104.57-.183 1.143-.243 1.717-.077.736-.122 1.477-.14 2.22-.024.88-.01 1.76.047 2.637.03.456.073.912.13 1.365.053.42.12.836.2 1.25.058.288.123.573.197.86.414 1.605 1.134 3.256 2.475 4.3.193.153.395.29.607.407.328.186.676.333 1.035.443.582.175 1.19.256 1.797.272.916.02 1.84-.097 2.73-.322 1.037-.262 2.027-.697 2.902-1.313.694-.49 1.313-1.082 1.842-1.747.665-.838 1.192-1.782 1.603-2.77.747-1.79 1.13-3.725 1.302-5.656.135-1.494.154-3.003.057-4.5-.04-.565-.094-1.128-.176-1.686-.056-.41-.127-.817-.216-1.22-.06-.284-.13-.562-.207-.84-.472-1.68-1.315-3.397-2.853-4.343-.29-.177-.6-.324-.92-.442-.553-.202-1.134-.304-1.72-.348-.237-.013-.475-.02-.71-.016zM548.688 319.186l-59.4 9.408-.427-.364v-14.774c.902-.904 1.804-1.805 2.697-2.71 3.977-4.054 7.865-8.2 11.59-12.482 2.476-2.848 4.884-5.754 7.18-8.748 2.213-2.885 4.332-5.853 6.234-8.955 1.505-2.45 2.9-5 3.933-7.69.56-1.465 1.027-2.987 1.208-4.55.11-.947.09-1.914-.038-2.86-.094-.694-.257-1.388-.54-2.033-.162-.374-.367-.73-.615-1.056-.147-.19-.31-.368-.485-.53-.983-.912-2.332-1.313-3.63-1.486-.27-.037-.54-.063-.81-.08-.294-.022-.588-.033-.878-.035-.428-.006-.855.007-1.282.03-.466.03-.932.07-1.396.126-.752.09-1.5.21-2.243.35-.825.158-1.645.344-2.46.557-.958.248-1.91.53-2.847.848-1.247.423-2.474.9-3.676 1.44-.988.442-1.96.927-2.898 1.472-.534.31-1.045.647-1.56.988l-4.384.694-.427-.364v-18.096c1.01-.64 2-1.278 3.056-1.833 2.02-1.058 4.157-1.9 6.316-2.625 2.313-.775 4.67-1.412 7.048-1.95 1.81-.407 3.633-.75 5.467-1.044 1.454-.232 2.916-.416 4.383-.55 1.103-.1 2.21-.167 3.317-.198.92-.027 1.842-.03 2.764.002 4.573.15 9.265 1.053 13.2 3.493.537.332 1.056.69 1.556 1.08.74.575 1.436 1.21 2.075 1.898.855.925 1.607 1.944 2.24 3.03.936 1.61 1.615 3.36 2.068 5.163.69 2.743.883 5.614.74 8.433-.342 6.71-2.784 13.137-6.053 18.943-.508.903-1.038 1.794-1.585 2.672-.72 1.153-1.472 2.287-2.248 3.403-1.06 1.525-2.17 3.02-3.32 4.48-1.377 1.75-2.8 3.46-4.267 5.138-1.892 2.158-3.85 4.257-5.845 6.32l25.82-4.09.428.363v18.776zm42.694-90.142c.914.018 1.826.063 2.735.152 1.873.186 3.73.55 5.528 1.116 1.847.584 3.626 1.386 5.28 2.403 1.047.647 2.042 1.378 2.972 2.185.73.63 1.42 1.307 2.067 2.02 3.988 4.396 6.254 10.075 7.493 15.81.18.84.34 1.685.482 2.534.206 1.24.37 2.483.502 3.73.157 1.504.262 3.013.325 4.525.094 2.184.1 4.37.024 6.556-.052 1.546-.15 3.09-.293 4.627-.79 8.45-3.05 16.958-7.802 24.082-.686 1.032-1.425 2.033-2.213 2.992-1.072 1.302-2.235 2.528-3.48 3.665-1.7 1.548-3.557 2.926-5.53 4.108-2.72 1.627-5.656 2.874-8.698 3.762-1.928.563-3.9.985-5.89 1.28-1.933.28-3.885.44-5.837.44-2.808-.01-5.622-.358-8.315-1.167-1.858-.56-3.652-1.34-5.318-2.334-1.174-.7-2.282-1.51-3.312-2.407-.726-.634-1.412-1.313-2.057-2.028-3.963-4.407-6.21-10.084-7.44-15.816-.18-.84-.34-1.683-.48-2.53-.204-1.233-.37-2.475-.497-3.72-.155-1.498-.26-3.002-.322-4.508-.092-2.183-.097-4.37-.024-6.555.052-1.548.147-3.097.29-4.637.103-1.12.23-2.235.39-3.346 1.023-7.307 3.247-14.564 7.358-20.746.6-.902 1.24-1.78 1.918-2.626.953-1.194 1.985-2.33 3.088-3.387 1.54-1.483 3.22-2.82 5.01-3.985 2.627-1.716 5.486-3.063 8.462-4.048 3.922-1.3 8.048-2.006 12.174-2.14.472-.01.94-.013 1.41-.008zm72.376 52.934l15.722-2.488c-.03-.236-.055-.472-.08-.708-.132-1.522-.125-3.05.06-4.57.117-.984.305-1.96.56-2.92 1.498-5.69 5.19-10.566 9.53-14.428.847-.754 1.724-1.467 2.623-2.158l.273-.207c-.297-.182-.587-.365-.878-.55-.33-.22-.658-.44-.983-.662-1.176-.838-2.305-1.74-3.345-2.748-1.617-1.567-2.992-3.366-4.01-5.376-.91-1.794-1.48-3.762-1.704-5.76-.144-1.313-.13-2.64-.037-3.954.248-3.41 1.176-6.754 2.782-9.772 1.425-2.673 3.356-5.05 5.617-7.058 4.426-3.935 9.978-6.414 15.66-7.92.948-.252 1.905-.477 2.864-.68 1.142-.237 2.292-.44 3.445-.617 3.955-.6 7.997-.87 11.985-.45 3.898.41 7.83 1.516 11.027 3.856 1.087.795 2.075 1.725 2.918 2.776.61.757 1.142 1.574 1.593 2.436 1.085 2.08 1.66 4.394 1.818 6.73.114 1.696.014 3.4-.308 5.068-.398 2.075-1.127 4.08-2.088 5.957-1.726 3.375-4.173 6.35-6.953 8.91-.665.616-1.356 1.203-2.06 1.777l-.09.073c.377.18.75.37 1.124.56.448.236.448.236.896.48 1.265.705 2.497 1.46 3.662 2.32 2.06 1.513 3.912 3.33 5.3 5.487 1.145 1.78 1.95 3.762 2.38 5.832.35 1.685.455 3.41.39 5.127-.15 3.82-1.185 7.57-3.03 10.917-1.2 2.185-2.73 4.18-4.482 5.95-4.53 4.57-10.434 7.57-16.533 9.458-1.014.314-2.036.597-3.066.856-1.227.307-2.467.574-3.714.807-2.958.557-5.957.934-8.967 1.036-.94.03-1.875.037-2.813.01-.76-.02-1.522-.062-2.28-.13-4.68-.41-9.45-1.753-13.137-4.78-.587-.48-1.143-1-1.66-1.558-.696-.752-1.322-1.572-1.864-2.442-.715-1.152-1.28-2.392-1.695-3.683v15.572l-56.064 8.88-.427-.365v-18.55l17.12-2.71v-41.358l-16.05 5.662-.96-.68v-18.697c19.268-7.773 18.98-9.06 39.498-12.31l.43.364v63.388zm-76.812-33.597c-1.048.028-2.1.195-3.107.494-.677.202-1.332.477-1.942.836-.31.18-.605.385-.886.607-1.847 1.473-2.905 3.702-3.613 5.906-.145.45-.276.906-.396 1.367-.152.59-.286 1.182-.406 1.78-.152.756-.28 1.516-.39 2.278-.14.96-.252 1.923-.34 2.887-.14 1.462-.23 2.927-.29 4.39-.08 1.97-.104 3.942-.094 5.914.016 2.58.097 5.163.32 7.736.08.953.183 1.904.314 2.85.092.653.197 1.302.317 1.95.11.576.234 1.15.378 1.718.107.432.228.862.364 1.29.102.316.212.633.333.945.086.224.178.45.277.67.537 1.202 1.294 2.415 2.468 3.083.2.113.404.207.616.286.606.224 1.256.31 1.9.318.933.016 1.87-.118 2.777-.333.894-.212 1.77-.534 2.562-1 .35-.205.683-.438.995-.695 1.554-1.278 2.53-3.112 3.207-4.972.125-.348.24-.7.35-1.05.116-.383.223-.766.323-1.15.152-.59.283-1.185.4-1.78.153-.757.28-1.517.386-2.28.137-.958.247-1.922.336-2.886.134-1.462.223-2.926.28-4.394.08-1.97.103-3.942.092-5.913-.015-2.583-.094-5.17-.31-7.744-.083-.952-.182-1.903-.31-2.852-.09-.652-.192-1.305-.312-1.952-.108-.576-.23-1.15-.372-1.718-.108-.433-.226-.865-.36-1.29-.1-.32-.21-.633-.327-.945-.086-.228-.178-.453-.277-.676-.598-1.35-1.475-2.69-2.888-3.285-.58-.247-1.207-.35-1.833-.383-.182-.01-.363-.01-.544-.01zm124.06 13.866c-2.105-.833-4.508-.223-5.96 1.514-.675.786-1.343 1.588-1.754 2.237-.74 1.17-1.308 2.455-1.6 3.812-.192.877-.284 1.79-.237 2.685.024.476.1.953.25 1.41.107.332.256.654.45.95.804 1.23 2.263 1.797 3.662 2.02.218.037.435.063.653.084 1.338.122 2.693.01 4.016-.22 1.56-.268 3.104-.72 4.535-1.416.986-.48 1.92-1.077 2.723-1.823.938-.874 1.684-1.97 1.988-3.227.106-.438.153-.886.156-1.334.003-.616-.08-1.253-.37-1.806-.293-.558-.772-1-1.27-1.378-.506-.385-1.053-.712-1.61-1.016-.67-.364-1.358-.694-2.053-1.006-1.176-.53-2.373-1.017-3.576-1.488zm3.504-35.04c-.857.015-1.708.106-2.552.25-.45.08-.898.17-1.344.278-.4.1-.8.212-1.19.34-.287.095-.568.2-.848.313-1.543.63-3.07 1.632-3.79 3.19-.124.265-.22.54-.292.82-.12.475-.167.967-.157 1.455.018.728.207 1.425.624 2.027.577.838 1.45 1.446 2.314 1.95.59.347 1.69.837 2.824 1.31 2.337 1.094 5.122.344 6.594-1.773.3-.43.585-.867.852-1.317.663-1.11 1.223-2.306 1.504-3.574.055-.254.1-.508.128-.767.024-.193.037-.387.042-.58.023-1.046-.178-2.204-.996-2.93-.29-.26-.636-.447-.998-.59-.602-.232-1.24-.33-1.878-.38-.28-.017-.558-.025-.836-.025zM29.877 297.307c-.464.074-.935-.06-1.292-.364-.356-.304-.56-.75-.56-1.218V158.4c0-.99.723-1.837 1.703-1.992 6.712-1.063 31.333-4.956 38.483-6.088 1.164-.184 2.31.42 2.814 1.483l37.865 79.59c.107.226.337.368.586.363.252-.008.472-.163.57-.393 4.308-10.51 33.022-80.517 37.79-92.146.417-1.017 1.334-1.74 2.418-1.913 6.83-1.084 31.698-5.027 38.41-6.093.422-.065.85.056 1.17.33.326.276.512.68.512 1.106v137.52c0 .992-.723 1.84-1.703 1.993-6.133.974-27.07 4.296-33.5 5.315-.474.076-.956-.06-1.32-.372-.365-.31-.574-.765-.574-1.245l-.03-68.04c0-.204-.144-.38-.346-.422-.2-.04-.4.068-.48.257l-30.984 74.234c-.27.65-.857 1.108-1.55 1.218-3.653.57-15.286 2.384-19.96 3.115-1.17.183-2.326-.42-2.847-1.485-4.62-9.43-26.073-53.257-30.844-63.003-.103-.207-.334-.317-.556-.264-.223.052-.383.25-.38.482.034 10.707.18 58.286.212 67.985.003.996-.72 1.844-1.703 2-6.196.98-27.48 4.353-33.906 5.372zm172.53-27.275c-.486.078-.987-.06-1.367-.383-.377-.32-.594-.792-.594-1.287V131.106c0-.99.72-1.837 1.7-1.994 6.248-.998 27.933-4.464 34.462-5.51.47-.073.945.06 1.307.367.36.308.57.76.57 1.233V262.45c0 .99-.72 1.834-1.697 1.994-6.214 1.008-27.74 4.51-34.38 5.588zm280.177-64.734l3.788-17.173c.23-1.046 1.216-1.745 2.28-1.617 6.033.726 25.02 2.892 32.604 2.355 9.075-.644 21.745-2.77 24.074-9.14 2.326-6.372-2.104-11.35-9.497-13.042-5.368-1.228-27.978-3.533-36.877-9.753-8.898-6.222-17.077-14.957-15.845-37.13 1.23-22.178 26.152-42.228 55.62-46.278 23.86-3.28 37.074.892 41.24 2.6.843.432 1.286 1.378 1.08 2.303-1.198 5.407-5.063 22.65-6.354 28.425-.244 1.072-1.27 1.78-2.358 1.62-5.01-.71-18.732-2.474-28.82-1.992-12.558.598-23.032 2.707-22.488 11.28.545 8.57 10.538 10.308 31.038 14.062 21.703 3.972 33.377 19.57 31.056 42.424-2.324 22.853-22.306 40.825-54.07 46.264-18.697 3.2-32.448 1.747-40.6.008-.002 0 .247.644.54 1.404.23.595.18 1.26-.14 1.813-.318.554-.87.93-1.5 1.03-7.193 1.138-27.36 4.318-33.502 5.285-1.04.165-2.05-.435-2.405-1.43l-7.037-19.783c-.335-.94-1.294-1.51-2.28-1.352l-45.512 7.278c-.96.155-1.755.836-2.05 1.766l-7.145 22.452c-.357 1.12-1.315 1.94-2.476 2.125-9.35 1.476-50.535 7.965-59.77 9.422-1.108.173-2.21-.354-2.774-1.326-4.084-7.076-20.37-35.287-24.323-42.138-.524-.906-1.55-1.39-2.583-1.22-2.004.33-5.303.872-7.307 1.205-.99.162-1.718 1.02-1.718 2.022v45.622c0 1.017-.737 1.88-1.737 2.044-6.27 1.02-27.695 4.504-34.328 5.58-.49.082-.993-.06-1.373-.38-.38-.324-.6-.798-.6-1.296V123.388c0-.993.72-1.837 1.7-1.994 7.388-1.182 36.338-5.808 36.338-5.808l30.3-4.653s23.88-5.13 37.06 16.945c13.785 23.09-.648 50.364-13.61 60.388-2.144 1.66-4.028 3.073-5.75 4.29-.694.49-.893 1.432-.453 2.157l20.76 34.376 44.723-129.753c.322-.938 1.134-1.62 2.114-1.78 6.272-1.01 29.267-4.712 35.53-5.723.923-.147 1.824.37 2.162 1.244 5.165 13.4 43.274 112.22 43.274 112.22zm141.187-89.846c0 .194.132.364.32.417.19.05.388-.033.488-.2l33.84-57.698c.454-.775 1.235-1.307 2.123-1.45 5.785-.93 27.847-4.473 35.618-5.723.498-.08.995.135 1.278.55.283.416.302.958.045 1.39-6.91 11.7-37.18 62.943-42.776 72.416-.543.917-.49 2.067.13 2.932l44.48 61.82c.21.294.255.674.116 1.007-.14.33-.44.566-.796.62l-35.88 5.563c-1.184.186-2.37-.315-3.07-1.29-5.55-7.754-29.75-41.55-34.933-48.787-.138-.19-.382-.268-.604-.198-.223.07-.375.28-.375.514v54.13c0 .987-.717 1.83-1.694 1.99-6.24 1.014-27.933 4.54-34.467 5.604-.467.076-.947-.058-1.308-.364-.36-.31-.57-.757-.57-1.232V70.118c0-.99.722-1.837 1.702-1.99l34.6-5.534c.432-.068.875.055 1.21.34.333.286.527.702.527 1.143v51.375zm78.256 75.544c-.424.068-.856-.053-1.184-.33-.327-.28-.516-.69-.516-1.12L700.3 52.034c0-.993.72-1.836 1.7-1.994 6.288-1.007 28.206-4.51 34.582-5.53.44-.07.886.056 1.224.345.335.288.532.707.532 1.152v137.37c0 .99-.718 1.834-1.695 1.99-6.296 1.026-28.305 4.602-34.617 5.63zm-288.777-4.24c-.17.252-.436.425-.734.478-.3.052-.605-.02-.852-.197-1.938-1.41-6.37-4.63-8.307-6.036-.244-.177-.406-.447-.448-.746-.043-.298.038-.602.224-.843 1.892-2.425 7.008-8.996 8.454-10.848.087-.113.11-.257.068-.39-.044-.134-.15-.236-.285-.275l-13.188-3.742c-.29-.08-.537-.28-.678-.547-.144-.267-.17-.582-.08-.873.743-2.28 2.435-7.485 3.174-9.76.094-.29.3-.528.574-.66.272-.132.587-.15.87-.046 2.89 1.05 10.686 3.892 12.89 4.694.133.047.28.026.392-.055.113-.085.178-.216.173-.357-.08-2.345-.372-10.64-.48-13.713-.01-.3.103-.595.315-.815.21-.217.498-.34.802-.34h10.27c.304 0 .592.123.804.34.21.22.322.514.312.815-.105 3.065-.39 11.323-.472 13.655-.005.14.06.272.173.356.114.082.26.103.39.056l12.89-4.642c.28-.102.596-.087.866.047.272.135.48.37.57.66l3.176 9.768c.094.288.066.603-.076.87-.144.267-.388.466-.68.547-2.956.84-10.92 3.11-13.174 3.752-.133.037-.24.14-.285.272-.042.133-.02.28.068.39l8.44 10.84c.184.242.266.546.224.844-.043.3-.206.57-.45.747-1.935 1.408-6.368 4.628-8.307 6.037-.246.178-.553.25-.85.197-.3-.053-.565-.226-.735-.477-1.716-2.56-6.358-9.476-7.668-11.43-.08-.118-.21-.19-.35-.19-.143 0-.274.072-.352.19-1.31 1.954-5.953 8.87-7.67 11.43zm-126.778-9.67c0 .344.15.67.413.89.262.222.608.316.946.26l13.648-2.344s12.722-.814 17.378-9.53c4.697-8.793 1.446-16.912-3.385-19.768-3.997-2.363-7.37-1.873-15.45-.505-4.754.806-9.234 1.52-12.118 1.972-.823.128-1.43.838-1.43 1.67v27.355z"/></g></g></g></svg>