<svg xmlns="http://www.w3.org/2000/svg" width="759" height="311" viewBox="0 0 759 311"><g fill="none" fill-rule="evenodd"><path d="M.096.048h758.16v310.81H.095z"/><path fill="#55C271" d="M129.867 99.573l180.704-28.62c17.193-2.724 34.718 2.22 47.954 13.523 3.54 3.024 6.677 6.422 9.375 10.112L379.38 60.24 451.67 48.83l10.228 28.175c8.477-19.55 26.48-34.21 48.663-37.724C597.32 25.536 758.253.047 758.253.047v190.727L.096 310.855V120.126l82.552-13.075 23.63 49.667 23.59-57.147z"/><path fill="#FFF" d="M28.482 282.257c-.46.073-.93-.06-1.283-.36-.355-.303-.558-.746-.558-1.21V144.294c0-.984.718-1.824 1.69-1.978 6.668-1.056 31.122-4.923 38.223-6.047 1.155-.182 2.292.416 2.794 1.473l37.607 79.05c.106.223.335.364.582.36.25-.01.468-.163.564-.392 4.28-10.435 32.8-79.967 37.535-91.518.412-1.01 1.323-1.727 2.4-1.9l38.15-6.05c.418-.066.842.053 1.162.326.322.274.507.674.507 1.098V255.3c0 .986-.72 1.827-1.692 1.98-6.09.968-26.887 4.268-33.272 5.28-.47.075-.95-.06-1.312-.37-.362-.307-.57-.76-.57-1.236-.002-10.06-.023-56.995-.028-67.577 0-.203-.143-.377-.344-.42-.198-.038-.398.07-.476.256-4.62 11.064-27.35 65.527-30.774 73.73-.268.644-.85 1.1-1.54 1.21-3.628.563-15.18 2.367-19.823 3.093-1.164.182-2.312-.417-2.83-1.476-4.587-9.365-25.895-52.894-30.633-62.574-.102-.205-.33-.315-.552-.263-.22.053-.38.25-.377.48l.21 67.522c.003.99-.715 1.832-1.69 1.986l-33.676 5.337zm171.357-27.09c-.485.08-.982-.06-1.36-.38-.374-.317-.59-.785-.59-1.277V117.186c0-.983.716-1.824 1.69-1.98 6.205-.99 27.742-4.434 34.226-5.472.466-.073.94.06 1.298.365.357.306.565.753.565 1.224v136.313c0 .984-.714 1.822-1.684 1.98-6.172 1.002-27.553 4.478-34.147 5.55zm278.27-64.293l3.762-17.057c.23-1.038 1.207-1.733 2.263-1.605 5.993.72 24.85 2.872 32.383 2.34 9.013-.64 21.597-2.75 23.91-9.08 2.31-6.328-2.09-11.27-9.432-12.952-5.332-1.22-27.788-3.51-36.627-9.688-8.837-6.18-16.96-14.855-15.738-36.88 1.22-22.025 25.974-41.938 55.24-45.96 23.698-3.26 36.823.886 40.96 2.583.838.43 1.278 1.37 1.072 2.287-1.19 5.37-5.027 22.497-6.31 28.232-.242 1.064-1.262 1.767-2.342 1.608-4.975-.705-18.604-2.456-28.625-1.977-12.47.593-22.874 2.688-22.333 11.2.54 8.515 10.465 10.24 30.826 13.97 21.556 3.944 33.15 19.436 30.845 42.134-2.308 22.697-22.154 40.547-53.7 45.95-18.572 3.178-32.23 1.734-40.327.006l.538 1.395c.23.592.177 1.253-.14 1.802-.315.55-.864.923-1.49 1.022-7.144 1.13-27.174 4.288-33.274 5.25-1.033.162-2.037-.433-2.388-1.422-1.525-4.283-5.5-15.46-6.99-19.648-.332-.934-1.285-1.5-2.263-1.343-7.527 1.206-37.95 6.07-45.202 7.23-.955.153-1.743.83-2.037 1.753l-7.095 22.3c-.354 1.114-1.306 1.928-2.46 2.11-9.285 1.465-50.19 7.91-59.362 9.357-1.1.172-2.196-.35-2.755-1.317l-24.158-41.85c-.52-.9-1.54-1.382-2.565-1.213-1.99.328-5.267.866-7.257 1.197-.984.16-1.707 1.012-1.707 2.008v45.312c0 1.01-.73 1.87-1.724 2.03-6.227 1.012-27.507 4.473-34.095 5.542-.486.08-.985-.06-1.362-.38-.378-.32-.596-.792-.596-1.286V109.52c0-.985.715-1.823 1.688-1.98l36.09-5.768 30.096-4.62s23.718-5.096 36.808 16.83c13.69 22.93-.645 50.02-13.517 59.976-2.13 1.65-4.002 3.052-5.712 4.26-.69.486-.887 1.423-.45 2.143 3.843 6.366 20.62 34.143 20.62 34.143l44.418-128.87c.32-.93 1.127-1.61 2.1-1.766 6.23-1.004 29.067-4.68 35.29-5.685.915-.146 1.81.367 2.146 1.236 5.13 13.31 42.98 111.456 42.98 111.456zm140.226-89.235c0 .192.13.36.317.413.187.052.385-.03.484-.198l33.61-57.304c.45-.77 1.226-1.298 2.108-1.44 5.746-.922 27.657-4.443 35.375-5.684.494-.078.99.135 1.27.547.28.413.3.952.044 1.38-6.864 11.622-36.928 62.515-42.486 71.924-.54.91-.487 2.053.13 2.912 6.136 8.526 38.154 53.03 44.178 61.4.208.29.252.668.114.998-.138.328-.437.563-.79.617l-35.636 5.524c-1.176.184-2.355-.313-3.05-1.28-5.513-7.703-29.548-41.27-34.695-48.456-.14-.19-.38-.268-.602-.198-.22.07-.372.28-.372.51v53.76c0 .982-.713 1.82-1.684 1.978l-34.232 5.566c-.463.076-.94-.057-1.3-.36-.355-.31-.563-.753-.563-1.224V56.614c0-.984.715-1.824 1.688-1.978l34.366-5.495c.43-.067.87.055 1.203.34.33.282.523.696.523 1.133v51.026zm77.723 75.03c-.423.067-.852-.053-1.178-.33-.325-.277-.512-.683-.512-1.11l-.026-136.578c0-.986.715-1.824 1.69-1.98 6.243-1 28.012-4.48 34.346-5.49.437-.07.88.054 1.215.34.333.286.528.703.528 1.145v136.435c0 .984-.713 1.822-1.684 1.978-6.253 1.017-28.113 4.57-34.38 5.59zm-286.814-4.21c-.17.25-.432.42-.73.473-.295.052-.6-.02-.844-.196l-8.25-5.995c-.243-.177-.405-.445-.446-.74-.042-.298.04-.6.224-.84 1.878-2.41 6.96-8.935 8.396-10.774.086-.112.11-.255.068-.388-.044-.133-.15-.234-.284-.273l-13.098-3.716c-.29-.08-.534-.277-.674-.543-.143-.265-.17-.577-.078-.866.736-2.263 2.417-7.433 3.15-9.694.094-.287.3-.523.57-.656.27-.13.584-.148.865-.044 2.87 1.043 10.613 3.866 12.802 4.663.132.045.278.025.39-.056.112-.083.177-.213.172-.354L411 128.84c-.01-.298.102-.59.313-.808.208-.216.494-.338.796-.338h10.2c.303 0 .59.122.8.338.208.218.32.51.31.81-.105 3.043-.388 11.245-.47 13.56-.004.14.06.27.173.355.112.08.257.1.387.054 2.186-.787 9.932-3.576 12.8-4.61.28-.1.593-.085.86.047.272.133.477.367.568.654.734 2.262 2.418 7.44 3.154 9.704.094.286.065.598-.075.863-.143.266-.385.464-.677.544l-13.083 3.727c-.133.037-.24.14-.284.27-.04.134-.018.28.068.39 1.435 1.838 6.51 8.356 8.385 10.766.182.24.263.54.22.838-.04.297-.202.565-.444.742-1.922 1.398-6.324 4.596-8.25 5.995-.245.177-.55.248-.846.196-.296-.052-.56-.224-.728-.474l-7.616-11.354c-.078-.117-.21-.187-.35-.187-.14 0-.27.07-.348.186-1.3 1.94-5.912 8.81-7.616 11.353zm-125.915-9.605c0 .34.152.663.412.882.26.22.604.315.94.258l13.553-2.327s12.636-.81 17.26-9.466c4.665-8.732 1.436-16.796-3.362-19.632-3.97-2.347-7.322-1.86-15.347-.502-4.72.8-9.17 1.51-12.035 1.96-.816.126-1.42.832-1.42 1.66v27.167z"/></g></svg>