<svg width="1440" height="2134" viewBox="0 0 1440 2134" xmlns="http://www.w3.org/2000/svg">
  <defs>
    <filter x="-50%" y="-50%" width="200%" height="200%" filterUnits="objectBoundingBox" id="a">
      <feGaussianBlur stdDeviation="10" in="SourceGraphic"/>
    </filter>
    <filter x="-50%" y="-50%" width="200%" height="200%" filterUnits="objectBoundingBox" id="b">
      <feGaussianBlur stdDeviation="2" in="SourceGraphic"/>
    </filter>
    <filter x="-50%" y="-50%" width="200%" height="200%" filterUnits="objectBoundingBox" id="c">
      <feGaussianBlur stdDeviation="3" in="SourceGraphic"/>
    </filter>
    <filter x="-50%" y="-50%" width="200%" height="200%" filterUnits="objectBoundingBox" id="d">
      <feGaussianBlur stdDeviation="3" in="SourceGraphic"/>
    </filter>
    <filter x="-50%" y="-50%" width="200%" height="200%" filterUnits="objectBoundingBox" id="e">
      <feGaussianBlur stdDeviation="3" in="SourceGraphic"/>
    </filter>
    <filter x="-50%" y="-50%" width="200%" height="200%" filterUnits="objectBoundingBox" id="f">
      <feGaussianBlur stdDeviation="3" in="SourceGraphic"/>
    </filter>
    <filter x="-50%" y="-50%" width="200%" height="200%" filterUnits="objectBoundingBox" id="g">
      <feGaussianBlur stdDeviation="3" in="SourceGraphic"/>
    </filter>
    <filter x="-50%" y="-50%" width="200%" height="200%" filterUnits="objectBoundingBox" id="h">
      <feGaussianBlur stdDeviation="3" in="SourceGraphic"/>
    </filter>
    <filter x="-50%" y="-50%" width="200%" height="200%" filterUnits="objectBoundingBox" id="i">
      <feGaussianBlur stdDeviation="3" in="SourceGraphic"/>
    </filter>
    <filter x="-50%" y="-50%" width="200%" height="200%" filterUnits="objectBoundingBox" id="j">
      <feGaussianBlur stdDeviation="3" in="SourceGraphic"/>
    </filter>
    <filter x="-50%" y="-50%" width="200%" height="200%" filterUnits="objectBoundingBox" id="k">
      <feGaussianBlur stdDeviation="3" in="SourceGraphic"/>
    </filter>
    <filter x="-50%" y="-50%" width="200%" height="200%" filterUnits="objectBoundingBox" id="l">
      <feGaussianBlur stdDeviation="3" in="SourceGraphic"/>
    </filter>
    <filter x="-50%" y="-50%" width="200%" height="200%" filterUnits="objectBoundingBox" id="m">
      <feGaussianBlur stdDeviation="5" in="SourceGraphic"/>
    </filter>
    <filter x="-50%" y="-50%" width="200%" height="200%" filterUnits="objectBoundingBox" id="n">
      <feGaussianBlur stdDeviation="5" in="SourceGraphic"/>
    </filter>
    <filter x="-50%" y="-50%" width="200%" height="200%" filterUnits="objectBoundingBox" id="o">
      <feGaussianBlur stdDeviation="5" in="SourceGraphic"/>
    </filter>
    <filter x="-50%" y="-50%" width="200%" height="200%" filterUnits="objectBoundingBox" id="p">
      <feGaussianBlur stdDeviation="2" in="SourceGraphic"/>
    </filter>
    <filter x="-50%" y="-50%" width="200%" height="200%" filterUnits="objectBoundingBox" id="q">
      <feGaussianBlur stdDeviation="10" in="SourceGraphic"/>
    </filter>
    <filter x="-50%" y="-50%" width="200%" height="200%" filterUnits="objectBoundingBox" id="r">
      <feGaussianBlur stdDeviation="5" in="SourceGraphic"/>
    </filter>
    <filter x="-50%" y="-50%" width="200%" height="200%" filterUnits="objectBoundingBox" id="s">
      <feGaussianBlur stdDeviation="5" in="SourceGraphic"/>
    </filter>
    <filter x="-50%" y="-50%" width="200%" height="200%" filterUnits="objectBoundingBox" id="t">
      <feGaussianBlur stdDeviation="10" in="SourceGraphic"/>
    </filter>
    <filter x="-50%" y="-50%" width="200%" height="200%" filterUnits="objectBoundingBox" id="u">
      <feGaussianBlur stdDeviation="10" in="SourceGraphic"/>
    </filter>
    <filter x="-50%" y="-50%" width="200%" height="200%" filterUnits="objectBoundingBox" id="v">
      <feGaussianBlur stdDeviation="10" in="SourceGraphic"/>
    </filter>
    <filter x="-50%" y="-50%" width="200%" height="200%" filterUnits="objectBoundingBox" id="w">
      <feGaussianBlur stdDeviation="10" in="SourceGraphic"/>
    </filter>
    <filter x="-50%" y="-50%" width="200%" height="200%" filterUnits="objectBoundingBox" id="x">
      <feGaussianBlur stdDeviation="10" in="SourceGraphic"/>
    </filter>
    <filter x="-50%" y="-50%" width="200%" height="200%" filterUnits="objectBoundingBox" id="y">
      <feGaussianBlur stdDeviation="10" in="SourceGraphic"/>
    </filter>
    <filter x="-50%" y="-50%" width="200%" height="200%" filterUnits="objectBoundingBox" id="z">
      <feGaussianBlur stdDeviation="10" in="SourceGraphic"/>
    </filter>
    <filter x="-50%" y="-50%" width="200%" height="200%" filterUnits="objectBoundingBox" id="A">
      <feGaussianBlur stdDeviation="5" in="SourceGraphic"/>
    </filter>
    <filter x="-50%" y="-50%" width="200%" height="200%" filterUnits="objectBoundingBox" id="B">
      <feGaussianBlur stdDeviation="3" in="SourceGraphic"/>
    </filter>
    <filter x="-50%" y="-50%" width="200%" height="200%" filterUnits="objectBoundingBox" id="C">
      <feGaussianBlur stdDeviation="2" in="SourceGraphic"/>
    </filter>
    <filter x="-50%" y="-50%" width="200%" height="200%" filterUnits="objectBoundingBox" id="D">
      <feGaussianBlur stdDeviation="10" in="SourceGraphic"/>
    </filter>
    <filter x="-50%" y="-50%" width="200%" height="200%" filterUnits="objectBoundingBox" id="E">
      <feGaussianBlur stdDeviation="2" in="SourceGraphic"/>
    </filter>
    <filter x="-50%" y="-50%" width="200%" height="200%" filterUnits="objectBoundingBox" id="F">
      <feGaussianBlur stdDeviation="3" in="SourceGraphic"/>
    </filter>
    <filter x="-50%" y="-50%" width="200%" height="200%" filterUnits="objectBoundingBox" id="G">
      <feGaussianBlur stdDeviation="3" in="SourceGraphic"/>
    </filter>
    <filter x="-50%" y="-50%" width="200%" height="200%" filterUnits="objectBoundingBox" id="H">
      <feGaussianBlur stdDeviation="3" in="SourceGraphic"/>
    </filter>
    <filter x="-50%" y="-50%" width="200%" height="200%" filterUnits="objectBoundingBox" id="I">
      <feGaussianBlur stdDeviation="3" in="SourceGraphic"/>
    </filter>
    <filter x="-50%" y="-50%" width="200%" height="200%" filterUnits="objectBoundingBox" id="J">
      <feGaussianBlur stdDeviation="3" in="SourceGraphic"/>
    </filter>
    <filter x="-50%" y="-50%" width="200%" height="200%" filterUnits="objectBoundingBox" id="K">
      <feGaussianBlur stdDeviation="3" in="SourceGraphic"/>
    </filter>
    <filter x="-50%" y="-50%" width="200%" height="200%" filterUnits="objectBoundingBox" id="L">
      <feGaussianBlur stdDeviation="3" in="SourceGraphic"/>
    </filter>
    <filter x="-50%" y="-50%" width="200%" height="200%" filterUnits="objectBoundingBox" id="M">
      <feGaussianBlur stdDeviation="3" in="SourceGraphic"/>
    </filter>
    <filter x="-50%" y="-50%" width="200%" height="200%" filterUnits="objectBoundingBox" id="N">
      <feGaussianBlur stdDeviation="3" in="SourceGraphic"/>
    </filter>
    <filter x="-50%" y="-50%" width="200%" height="200%" filterUnits="objectBoundingBox" id="O">
      <feGaussianBlur stdDeviation="3" in="SourceGraphic"/>
    </filter>
    <filter x="-50%" y="-50%" width="200%" height="200%" filterUnits="objectBoundingBox" id="P">
      <feGaussianBlur stdDeviation="5" in="SourceGraphic"/>
    </filter>
    <filter x="-50%" y="-50%" width="200%" height="200%" filterUnits="objectBoundingBox" id="Q">
      <feGaussianBlur stdDeviation="5" in="SourceGraphic"/>
    </filter>
    <filter x="-50%" y="-50%" width="200%" height="200%" filterUnits="objectBoundingBox" id="R">
      <feGaussianBlur stdDeviation="2" in="SourceGraphic"/>
    </filter>
    <filter x="-50%" y="-50%" width="200%" height="200%" filterUnits="objectBoundingBox" id="S">
      <feGaussianBlur stdDeviation="10" in="SourceGraphic"/>
    </filter>
    <filter x="-50%" y="-50%" width="200%" height="200%" filterUnits="objectBoundingBox" id="T">
      <feGaussianBlur stdDeviation="5" in="SourceGraphic"/>
    </filter>
    <filter x="-50%" y="-50%" width="200%" height="200%" filterUnits="objectBoundingBox" id="U">
      <feGaussianBlur stdDeviation="5" in="SourceGraphic"/>
    </filter>
    <filter x="-50%" y="-50%" width="200%" height="200%" filterUnits="objectBoundingBox" id="V">
      <feGaussianBlur stdDeviation="10" in="SourceGraphic"/>
    </filter>
    <filter x="-50%" y="-50%" width="200%" height="200%" filterUnits="objectBoundingBox" id="W">
      <feGaussianBlur stdDeviation="10" in="SourceGraphic"/>
    </filter>
    <filter x="-50%" y="-50%" width="200%" height="200%" filterUnits="objectBoundingBox" id="X">
      <feGaussianBlur stdDeviation="10" in="SourceGraphic"/>
    </filter>
    <filter x="-50%" y="-50%" width="200%" height="200%" filterUnits="objectBoundingBox" id="Y">
      <feGaussianBlur stdDeviation="10" in="SourceGraphic"/>
    </filter>
    <filter x="-50%" y="-50%" width="200%" height="200%" filterUnits="objectBoundingBox" id="Z">
      <feGaussianBlur stdDeviation="10" in="SourceGraphic"/>
    </filter>
    <filter x="-50%" y="-50%" width="200%" height="200%" filterUnits="objectBoundingBox" id="aa">
      <feGaussianBlur stdDeviation="10" in="SourceGraphic"/>
    </filter>
    <filter x="-50%" y="-50%" width="200%" height="200%" filterUnits="objectBoundingBox" id="ab">
      <feGaussianBlur stdDeviation="5" in="SourceGraphic"/>
    </filter>
    <filter x="-50%" y="-50%" width="200%" height="200%" filterUnits="objectBoundingBox" id="ac">
      <feGaussianBlur stdDeviation="3" in="SourceGraphic"/>
    </filter>
    <filter x="-50%" y="-50%" width="200%" height="200%" filterUnits="objectBoundingBox" id="ad">
      <feGaussianBlur stdDeviation="2" in="SourceGraphic"/>
    </filter>
    <filter x="-50%" y="-50%" width="200%" height="200%" filterUnits="objectBoundingBox" id="ae">
      <feGaussianBlur stdDeviation="10" in="SourceGraphic"/>
    </filter>
  </defs>
  <g fill="none" fill-rule="evenodd">
    <path fill-opacity=".7" fill="#F5FCFF" filter="url(#a)" transform="rotate(-149 946.907 1090.956)" d="M1059.815 1015.898l124.094 257.643H935.72"/>
    <path fill-opacity=".5" fill="#FFF" filter="url(#b)" transform="rotate(-149 1097.116 967.437)" d="M1210.025 986.28l60.712 69.84h-121.424"/>
    <path fill-opacity=".5" fill="#FFF" d="M1299.954 889.66l79.32-47.663-21.086 119.58"/>
    <path fill-opacity=".7" fill="#F5FCFF" d="M430.24 829.794l12.678 121.595-118.503-60.38"/>
    <path fill-opacity=".7" fill="#F5FCFF" filter="url(#c)" transform="rotate(27 794.68 91.745)" d="M556.622 536.187l22.94 27.2h-45.88"/>
    <path fill-opacity=".7" fill="#F5FCFF" filter="url(#d)" transform="rotate(27 1216.505 -51.704)" d="M978.446 392.738l22.94 27.2h-45.88"/>
    <path fill-opacity=".7" fill="#F5FCFF" filter="url(#e)" transform="rotate(27 1347.676 230.476)" d="M1109.617 674.917l22.94 27.202h-45.88"/>
    <path fill-opacity=".7" fill="#F5FCFF" filter="url(#f)" transform="rotate(116 1146.307 507.355)" d="M1187.942 629.618l22.94 27.2h-45.88"/>
    <path fill-opacity=".7" fill="#F5FCFF" filter="url(#g)" transform="rotate(116 390.05 590.066)" d="M431.685 703.396l26.614 45.067h-53.23"/>
    <path fill-opacity=".7" fill="#F5FCFF" filter="url(#h)" transform="rotate(116 422.608 141.69)" d="M464.244 255.02l8.344 45.066h-16.69"/>
    <path fill-opacity=".7" fill="#F5FCFF" filter="url(#i)" transform="rotate(116 743.484 606.956)" d="M785.12 720.285l8.343 45.068h-16.69"/>
    <path fill="#A8E0FB" filter="url(#j)" transform="rotate(116 1234.824 190.79)" d="M1276.46 318.687l13.81 15.934h-27.62"/>
    <path fill="#A8E0FB" filter="url(#k)" transform="rotate(116 555.377 682.87)" d="M597.012 810.766l13.81 15.934h-27.62"/>
    <path fill="#35B0E8" filter="url(#l)" transform="rotate(116 283.598 397.86)" d="M325.233 525.755l13.81 15.934h-27.62"/>
    <path fill="#35B0E8" filter="url(#m)" transform="rotate(116 270.142 187.6)" d="M311.777 307.557l23.91 31.81h-47.82"/>
    <path fill="#35B0E8" filter="url(#n)" transform="rotate(116 1026.142 442.6)" d="M1067.777 562.557l23.91 31.81h-47.82"/>
    <path fill="#35B0E8" opacity=".3" filter="url(#o)" transform="rotate(116 1484.193 505.736)" d="M1525.828 625.693l23.91 31.81h-47.82"/>
    <path fill="#35B0E8" opacity=".3" filter="url(#p)" transform="rotate(-156 1195.06 297.302)" d="M1241.787 219.864l143.114 274.19-164.1-22.28"/>
    <path fill-opacity=".7" fill="#CAE2EC" filter="url(#q)" transform="rotate(27 1012.916 489.573)" d="M774.857 896.323l66.5 102.586h-133"/>
    <path fill-opacity=".8" fill="#CAE2EC" filter="url(#r)" transform="rotate(27 1208.493 275.825)" d="M970.434 683.868l131.5 100h-263"/>
    <path fill-opacity=".5" fill="#DFEEF6" filter="url(#s)" transform="rotate(78 1415.557 535.517)" d="M1409 675.6l66.5 102.585h-133"/>
    <path fill-opacity=".5" fill="#A8E0FB" opacity=".4" filter="url(#t)" transform="rotate(82 332.23 609.402)" d="M338.308 657.947L487.02 870.32l-309.34 57.903"/>
    <path fill-opacity=".8" fill="#FFF" d="M568.432 889.53l327.546-23.216-27.694 157.058"/>
    <path fill-opacity=".5" fill="#FFF" filter="url(#u)" transform="rotate(-80 710.75 898.338)" d="M895.9 849.542l79.74 38.694H816.16"/>
    <path fill-opacity=".8" fill="#FFF" filter="url(#v)" transform="rotate(24 610.484 48.234)" d="M329.82 536.008l79.74 38.694H250.077"/>
    <path fill-opacity=".8" fill="#FFF" filter="url(#w)" transform="rotate(-80 1413.43 991.544)" d="M1598.578 802.826l79.74 318.538h-159.48"/>
    <path fill-opacity=".8" fill="#F5FCFF" opacity=".5" filter="url(#x)" transform="rotate(74 866.004 100.137)" d="M852.168 235.823l131.5 128.15h-263"/>
    <path fill-opacity=".3" fill="#DFEEF6" filter="url(#y)" transform="rotate(-45 968.77 933.865)" d="M921.93 587.448l657.124 160.778-433.313 250.67"/>
    <path fill-opacity=".8" fill="#CAE2EC" opacity=".4" filter="url(#z)" transform="rotate(29 748.52 68.88)" d="M611.97 109.657l248.294 780.187-652.43-369.304"/>
    <path fill-opacity=".7" fill="#F5FCFF" opacity=".2" filter="url(#A)" transform="rotate(-149 510.844 243.353)" d="M623.753 212.415l152.55 169.402h-305.1"/>
    <path fill-opacity=".7" fill="#CAE2EC" opacity=".5" filter="url(#B)" transform="rotate(-45 890.803 547.032)" d="M972.232 220.444l404.05 218.07-407.514 153.72"/>
    <path fill-opacity=".8" fill="#DFEEF6" opacity=".4" filter="url(#C)" transform="rotate(27 493.743 587.52)" d="M255.685 994.27l66.5 102.584h-133"/>
    <path fill-opacity=".7" fill="#F5FCFF" filter="url(#D)" transform="rotate(31 904.05 623.145)" d="M710.185 901.46l124.093 257.64H586.09"/>
    <path fill-opacity=".5" fill="#FFF" filter="url(#E)" transform="rotate(31 753.84 746.665)" d="M559.975 1118.88l60.712 69.84H499.263"/>
    <path fill-opacity=".5" fill="#FFF" d="M106.046 969.34l-79.32 47.663 21.086-119.58"/>
    <path fill-opacity=".7" fill="#F5FCFF" d="M975.76 1029.206L963.082 907.61l118.503 60.38"/>
    <path fill-opacity=".7" fill="#F5FCFF" filter="url(#F)" transform="rotate(-153 1103.41 1568.06)" d="M1213.378 1611.612l22.94 27.2h-45.88"/>
    <path fill-opacity=".7" fill="#F5FCFF" filter="url(#G)" transform="rotate(-153 681.588 1711.51)" d="M791.554 1755.06l22.94 27.202h-45.88"/>
    <path fill-opacity=".7" fill="#F5FCFF" filter="url(#H)" transform="rotate(-153 550.417 1429.33)" d="M660.383 1472.88l22.94 27.203h-45.88"/>
    <path fill-opacity=".7" fill="#F5FCFF" filter="url(#I)" transform="rotate(-64 364.63 1598.412)" d="M582.058 1518.18l22.94 27.202h-45.88"/>
    <path fill-opacity=".7" fill="#F5FCFF" filter="url(#J)" transform="rotate(-64 1120.888 1515.7)" d="M1338.315 1426.537l26.614 45.067h-53.23"/>
    <path fill-opacity=".7" fill="#F5FCFF" filter="url(#K)" transform="rotate(-64 1088.33 1964.078)" d="M1305.756 1874.914l8.345 45.067h-16.686"/>
    <path fill-opacity=".7" fill="#F5FCFF" filter="url(#L)" transform="rotate(-64 767.455 1498.81)" d="M984.88 1409.647l8.346 45.068h-16.69"/>
    <path fill="#A8E0FB" filter="url(#M)" transform="rotate(-64 276.114 1914.977)" d="M493.54 1840.38l13.81 15.933h-27.62"/>
    <path fill="#A8E0FB" filter="url(#N)" transform="rotate(-64 955.562 1422.897)" d="M1172.988 1348.3l13.81 15.934h-27.62"/>
    <path fill="#35B0E8" filter="url(#O)" transform="rotate(-64 1227.34 1707.908)" d="M1444.767 1633.31l13.81 15.935h-27.62"/>
    <path fill="#35B0E8" filter="url(#P)" transform="rotate(-64 11.454 1307.998)" d="M228.88 1225.462l23.91 31.81h-47.82"/>
    <path fill="#35B0E8" filter="url(#Q)" transform="rotate(-64 26.745 1600.032)" d="M244.172 1517.496l23.91 31.81h-47.82"/>
    <path fill="#35B0E8" opacity=".3" filter="url(#R)" transform="rotate(24 524.948 1566.32)" d="M183.218 1936.346l143.114 274.19-164.1-22.28"/>
    <path fill-opacity=".7" fill="#CAE2EC" filter="url(#S)" transform="rotate(-153 898.826 1316.514)" d="M1008.792 1322.374l66.5 102.585h-133"/>
    <path fill-opacity=".8" fill="#CAE2EC" opacity=".7" filter="url(#T)" transform="rotate(-153 1297.466 1264.493)" d="M1407.432 1271.646l131.5 100h-263"/>
    <path fill-opacity=".5" fill="#DFEEF6" filter="url(#U)" transform="rotate(-102 318.497 1313.782)" d="M473.47 1267.798l66.5 102.586h-133"/>
    <path fill-opacity=".5" fill="#A8E0FB" opacity=".5" filter="url(#V)" transform="rotate(-98 1387.626 2004.52)" d="M1553.258 1869.277l148.713 212.372-309.34 57.902"/>
    <path fill-opacity=".8" fill="#FFF" d="M837.568 969.47l-327.546 23.216 27.694-157.058"/>
    <path fill-opacity=".5" fill="#FFF" filter="url(#W)" transform="rotate(100 849.39 1150.753)" d="M874.1 1286.764l79.74 38.694H794.36"/>
    <path fill-opacity=".8" fill="#FFF" filter="url(#X)" transform="rotate(-156 1332.39 1559.988)" d="M1440.18 1600.298l79.742 38.694h-159.48"/>
    <path fill-opacity=".8" fill="#FFF" filter="url(#Y)" transform="rotate(100 146.71 1057.547)" d="M171.422 1053.636l79.74 318.538H91.682"/>
    <path fill-opacity=".3" fill="#DFEEF6" filter="url(#Z)" transform="rotate(135 1291.38 1987.815)" d="M1021.096 1898.784l657.124 160.78-433.313 250.668"/>
    <path fill-opacity=".8" fill="#CAE2EC" opacity=".3" filter="url(#aa)" transform="rotate(-151 522.338 1543.683)" d="M711.688 1209.056l248.296 780.186-652.43-369.303"/>
    <path fill-opacity=".7" fill="#F5FCFF" opacity=".2" filter="url(#ab)" transform="rotate(31 1340.112 1470.748)" d="M1146.247 1793.183l152.55 169.402h-305.1"/>
    <path fill-opacity=".7" fill="#CAE2EC" opacity=".4" filter="url(#ac)" transform="rotate(135 724.003 2135.488)" d="M581.987 2066.287l404.05 218.07-407.514 153.72"/>
    <path fill-opacity=".8" fill="#DFEEF6" opacity=".4" filter="url(#ad)" transform="rotate(-153 1462.11 828.753)" d="M1572.076 834.613l66.5 102.586h-133"/>
    <path fill-opacity=".8" fill="#F5FCFF" filter="url(#ae)" transform="rotate(-106 559.654 1703.178)" d="M710.185 1649.53l131.5 128.15h-263"/>
  </g>
</svg>
