<?xml version="1.0" encoding="utf-8"?>
<!DOCTYPE svg PUBLIC "-//W3C//DTD SVG 1.1//EN" "http://www.w3.org/Graphics/SVG/1.1/DTD/svg11.dtd">
<svg version="1.1" xmlns="http://www.w3.org/2000/svg" xmlns:xlink="http://www.w3.org/1999/xlink" x="0px" y="0px"
	 width="200px" height="200px" viewBox="0 0 200 200" enable-background="new 0 0 200 200" xml:space="preserve">
<rect fill="#35B0E8" width="200" height="200"/>
<path fill="#1F94CA" d="M125.67,87.337c3.484,10.824,6.92,24.916,5.382,35.012c-0.774,5.083-4.644,8.551-10.052,10.823
	c0.999-2.657,1.408-6.194,0.46-10.853c-2.205-10.834-9.531-14.887-13.183-16.26c12.091,5.462,16.424,28.972-3.804,38.988
	c0,0,15.271-3.311,15.229,3.101c-0.042,6.412-3.304,9.92-5.296,8.249c-1.994-1.67-3.75-5.674-3.75-5.674s-1.941,6.285-4.464,5.674
	c-2.522-0.61-3.515-4.5-3.515-4.5s-5.886,2.412-12.562,2.146c-6.677-0.265-9.136-6.215-3.979-8.996l6.988-3.771
	c0,0-9.634,2.142-12.64-5.849c-2.672-0.509-4.817-1.107-6.182-1.73C65.095,129.5,57.278,88.3,57.278,88.3s-13.958,3.825-17.024,0
	c-2.309-2.88,11.638-11.284,22.7-11.35c7.542-0.045,11.728,28.243,22.699,28.374c8.309,0.1,5.092-28.351,5.675-39.724
	c0.583-11.374,7.292-22.713,26.28-22.6c23.451,0.139,22.406,16.924,22.406,16.924c0.014,0.14,0.023,0.279,0.031,0.416l-7.658,2.965
	l-2.32-3.38l-5.729,3.388l-5.289-3.924l-5.021,2.265l-4.576-3.575l4.021,7.521l5.395-2.497l5.547,4.377l4.279-3.011l3.436,2.76
	l6.058-0.617c-5.04,6.146-18.484,4.663-18.484,4.663s1.993,4.548,4.337,11.219c5.02-2.074,10.525-3.873,12.6-2.838
	c4.178,2.083,1.02,13.662,0,11.35c-1.021-2.312-1.076-4.024-1.076-4.024s-0.73,6.712-2.227,4.024
	c-1.495-2.688-1.301-5.675-1.301-5.675L125.67,87.337L125.67,87.337z M111.189,48.576c1.566,0,2.838,1.271,2.838,2.837
	c0,1.565-1.271,2.837-2.838,2.837s-2.838-1.271-2.838-2.837C108.352,49.847,109.623,48.576,111.189,48.576L111.189,48.576
	L111.189,48.576z"/>
</svg>
