<svg xmlns="http://www.w3.org/2000/svg" width="240" height="50" viewBox="0 0 240 50"><g fill="#CAE2EC" fill-rule="evenodd"><path d="M42.575 2.114c0-.196-.16-.355-.357-.355h-5.432c-.198 0-.357.158-.357.354V25.98c0 .198.158.357.356.357h5.432c.196 0 .357-.16.357-.356V2.115zM125.756 2.114c0-.196.16-.355.357-.355h15.965c.095 0 .186.036.253.103.066.066.105.157.105.25V6.32c0 .095-.04.185-.104.252-.066.067-.157.104-.252.104h-10.002c-.177 0-.32.144-.32.32v4.54c0 .176.143.32.32.32h8.598c.196 0 .356.16.356.355v3.676c0 .197-.16.356-.356.356h-8.598c-.177 0-.32.144-.32.32v4.54c0 .176.143.32.32.32h10.002c.095 0 .186.037.253.103.066.067.105.158.105.252v4.204c0 .095-.04.186-.104.253-.066.067-.157.104-.252.104h-15.965c-.197 0-.357-.16-.357-.356V2.115zM96.614 26c.028.077.017.163-.03.23-.046.067-.123.107-.204.107h-5.228c-.21 0-.4-.133-.47-.33l-1.342-3.782c-.07-.2-.258-.332-.47-.332h-9.042c-.21 0-.398.133-.468.332l-1.344 3.78c-.07.2-.258.332-.47.332H72.32c-.083 0-.158-.04-.206-.107-.045-.067-.056-.153-.028-.23L81.01 2.083c.074-.194.26-.323.467-.323h5.746c.207 0 .393.128.465.322l8.926 23.92zm-15.478-8.78c-.023.064-.012.137.027.194.04.056.105.09.175.09h6.024c.068 0 .133-.034.173-.09.04-.057.05-.13.028-.195l-3.046-8.577c-.026-.07-.093-.12-.168-.12-.077 0-.143.05-.168.12l-3.046 8.576zM170.76 26c.03.077.018.163-.028.23-.047.067-.122.107-.205.107H165.3c-.21 0-.4-.133-.47-.33l-1.34-3.782c-.073-.2-.26-.332-.472-.332h-9.04c-.212 0-.4.133-.472.332l-1.34 3.78c-.073.2-.26.332-.47.332h-5.23c-.08 0-.158-.04-.203-.107-.048-.067-.058-.153-.03-.23l8.925-23.918c.072-.194.26-.323.467-.323h5.745c.21 0 .395.128.467.322l8.924 23.92zm-15.475-8.78c-.025.064-.014.137.026.194.042.056.107.09.175.09h6.024c.07 0 .134-.034.174-.09.04-.057.05-.13.026-.195l-3.046-8.577c-.024-.07-.09-.12-.166-.12-.076 0-.143.05-.17.12l-3.043 8.576zM.718 2.114c0-.196.16-.355.357-.355H7.38c.143 0 .273.084.327.215l7.45 16.462c.012.026.036.043.064.043.03 0 .056-.017.068-.043l7.447-16.462c.057-.13.186-.216.33-.216h6.305c.196 0 .356.158.356.354V25.98c0 .198-.16.357-.356.357h-5.144c-.195 0-.355-.16-.355-.356V11.903c0-.033-.023-.063-.057-.07-.03-.006-.065.01-.08.042L17.1 26.122c-.056.13-.186.215-.328.215h-3.1c-.14 0-.27-.085-.327-.215L6.71 11.874c-.014-.03-.047-.048-.08-.04-.032.005-.057.035-.057.068v14.08c0 .196-.16.355-.356.355H1.075c-.197 0-.357-.16-.357-.356V2.115zM113.745 26.336h-12.853c-.1 0-.195-.038-.267-.108-.07-.072-.11-.167-.11-.267V2.136c0-.207.17-.377.377-.377h11.624c3.683 0 6.67 2.988 6.67 6.67 0 2.122-.99 4.01-2.53 5.233 2.225 1.082 3.76 3.365 3.76 6.005 0 3.685-2.988 6.67-6.67 6.67zm1.05-7.417c0-.73-.29-1.5-.805-2.015-.514-.514-1.21-.804-1.94-.804h-5.296c-.18 0-.33.15-.33.33v4.975c0 .183.15.33.33.33h5.296c.73 0 1.426-.29 1.94-.804.515-.513.804-1.284.804-2.01zm-1.303-9.74c0-1.514-1.227-2.815-2.744-2.815h-3.994c-.18 0-.33.147-.33.33v4.973c0 .183.15.33.33.33h3.994c1.517 0 2.744-1.3 2.744-2.817zM189.46 16.895v-14.8c.005-.088.042-.175.106-.233.066-.072.157-.108.25-.108h5.504c.094 0 .185.036.252.108.067.066.104.152.104.247v14.213c0 5.82-4.716 10.538-10.533 10.538h-1.467c-5.817 0-10.39-4.718-10.39-10.537V2.11c0-.096.04-.182.106-.248.066-.072.157-.108.252-.108h5.502c.095 0 .186.036.252.108.067.066.104.152.104.247v14.785c0 2.75 2.23 4.98 4.98 4.98 1.32 0 2.587-.53 3.52-1.462.935-.934 1.46-2.2 1.46-3.518zM220.53 26.72c-.058.09-.15.148-.254.17-.105.02-.212-.008-.298-.072l-4.54-3.295c-.087-.063-.143-.155-.158-.26-.014-.107.014-.214.08-.298l5.773-7.354c.034-.042.044-.098.027-.148-.017-.05-.058-.092-.11-.106l-8.96-2.468c-.102-.028-.19-.092-.24-.19-.05-.093-.06-.2-.026-.305l1.734-5.34c.033-.098.105-.182.2-.225.095-.05.205-.05.304-.014l8.733 3.196c.05.02.108.007.152-.02.044-.036.07-.086.067-.142l-.38-9.257c-.006-.105.033-.21.107-.288.074-.078.175-.12.28-.12h5.614c.106 0 .207.042.28.12.074.077.113.183.11.29l-.385 9.25c-.003.055.02.105.065.14.044.028.1.035.152.02l8.737-3.188c.1-.035.208-.035.304.014.094.043.167.127.2.226l1.734 5.34c.032.105.022.21-.028.303-.05.1-.136.163-.24.19l-8.967 2.476c-.053.014-.094.057-.11.106-.018.05-.008.105.025.155l5.783 7.34c.065.084.094.19.08.297-.015.106-.07.198-.157.26l-4.54 3.296c-.086.064-.194.092-.298.07-.105-.02-.197-.077-.256-.17l-5.16-7.79c-.03-.043-.082-.072-.137-.072-.054 0-.105.03-.135.07l-5.16 7.793zM49.625 1.754h11.67c4.178 0 7.564 3.387 7.564 7.563 0 3.236-2.027 5.993-4.878 7.07-.04.016-.07.052-.085.088-.014.044-.01.087.01.123l5.258 9.36c.044.078.043.172-.002.252-.046.072-.13.123-.22.123h-5.64c-.178 0-.34-.094-.426-.253l-4.65-8.476c-.077-.137-.223-.224-.38-.224h-2.14c-.164.015-.292.152-.292.318v8.28c0 .196-.16.355-.356.355h-5.435c-.196 0-.355-.16-.355-.355V2.108c0-.195.16-.354.355-.354zm9.956 4.914h-3.845c-.085 0-.167.036-.227.094-.06.066-.093.145-.093.232v5.76c0 .088.033.168.093.233.06.058.142.094.227.094h3.846c1.77 0 3.205-1.44 3.205-3.205 0-1.766-1.434-3.207-3.204-3.207zM204.41 1.682c0-.073-.056-.13-.127-.13h-.256c-.07 0-.128.057-.128.13v24.904c0 .065.056.123.127.123h.256c.07 0 .128-.06.128-.124V1.682z"/><g fill-rule="nonzero"><path d="M5.273 37.084l-2.67 6.458H7.94l-2.667-6.458zm3.987 9.663l-1.135-2.744H2.42l-1.136 2.744H.717l4.264-10.23h.584l4.264 10.23H9.26zM14.34 41.64c0-3.16 2.38-5.292 5.46-5.292 2.24 0 3.544 1.21 4.266 2.5l-1.872.92c-.43-.828-1.35-1.488-2.393-1.488-1.87 0-3.22 1.427-3.22 3.36 0 1.932 1.35 3.36 3.22 3.36 1.044 0 1.965-.66 2.394-1.49l1.872.907c-.722 1.273-2.026 2.514-4.265 2.514-3.08 0-5.46-2.145-5.46-5.29M30.51 43.035c0-1.15-.675-2.146-1.9-2.146-1.214 0-1.89.995-1.89 2.145 0 1.167.676 2.164 1.89 2.164 1.225 0 1.9-.998 1.9-2.165m-5.814 0c0-2.1 1.473-3.88 3.913-3.88 2.453 0 3.925 1.78 3.925 3.88 0 2.103-1.472 3.896-3.926 3.896-2.44 0-3.914-1.792-3.914-3.895M38.933 44.125v-2.41c-.337-.473-1.042-.826-1.67-.826-1.12 0-1.888.765-1.888 2.04 0 1.272.767 2.04 1.887 2.04.63 0 1.334-.37 1.67-.845M33.69 48.65l.875-1.396c.598.645 1.395.905 2.315.905.936 0 2.055-.4 2.055-1.903v-.72c-.582.736-1.38 1.15-2.3 1.15-1.84 0-3.268-1.29-3.268-3.758 0-2.425 1.397-3.775 3.268-3.775.89 0 1.703.368 2.3 1.134v-.95h1.95v6.917c0 2.807-2.18 3.498-4.005 3.498-1.258 0-2.254-.292-3.19-1.105M47.664 46.75v-4.48c0-1.028-.537-1.38-1.366-1.38-.767 0-1.35.428-1.687.857v5.002h-1.947v-7.41h1.948v.95c.477-.553 1.397-1.135 2.593-1.135 1.64 0 2.423.92 2.423 2.362v5.232h-1.962zM51.393 46.75h1.948v-7.41h-1.947v7.41zm-.185-9.374c0-.645.522-1.15 1.152-1.15.643 0 1.165.505 1.165 1.15 0 .644-.522 1.166-1.165 1.166-.63 0-1.152-.522-1.152-1.166zM54.798 46.75v-1.46l3.345-4.25h-3.345v-1.7h6v1.395l-3.406 4.31h3.466v1.704M66.764 44.97v-.92c-.32-.43-.934-.662-1.564-.662-.766 0-1.395.414-1.395 1.12 0 .706.63 1.105 1.395 1.105.63 0 1.243-.215 1.564-.644zm0 1.778v-.782c-.505.613-1.38.966-2.346.966-1.18 0-2.56-.798-2.56-2.454 0-1.75 1.38-2.393 2.56-2.393.997 0 1.856.322 2.346.905v-.936c0-.75-.643-1.243-1.624-1.243-.784 0-1.52.31-2.133.876l-.767-1.366c.905-.812 2.07-1.165 3.237-1.165 1.703 0 3.25.675 3.25 2.807v4.786h-1.963zM75.495 46.75v-4.48c0-1.028-.537-1.38-1.365-1.38-.767 0-1.35.428-1.687.857v5.002h-1.95v-7.41h1.95v.95c.475-.553 1.395-1.135 2.592-1.135 1.642 0 2.424.92 2.424 2.362v5.232h-1.965zM79.623 44.892v-3.85h-1.226v-1.703h1.226v-2.026h1.95v2.025h1.502v1.7h-1.503v3.33c0 .476.245.83.674.83.292 0 .57-.108.675-.23l.415 1.487c-.29.26-.812.476-1.625.476-1.366 0-2.087-.706-2.087-2.04M95.333 41.625c0-1.795-1.104-3.19-3.19-3.19H90.27v6.396h1.856c2.025 0 3.207-1.457 3.207-3.205zm-7.24 5.124V36.516h4.033c3.207 0 5.43 2.04 5.43 5.108 0 3.1-2.223 5.124-5.414 5.124h-4.05zM98.908 46.75h1.95v-7.41h-1.95v7.41zm-.184-9.374c0-.645.522-1.15 1.15-1.15.645 0 1.167.505 1.167 1.15 0 .644-.52 1.166-1.165 1.166-.63 0-1.15-.522-1.15-1.166zM107.73 44.125v-2.408c-.338-.475-1.044-.828-1.672-.828-1.12 0-1.888.766-1.888 2.04 0 1.272.767 2.04 1.888 2.04.628 0 1.334-.37 1.672-.845m-5.247 4.525l.875-1.396c.597.645 1.395.905 2.316.905.935 0 2.056-.4 2.056-1.902v-.722c-.583.737-1.382 1.15-2.302 1.15-1.84 0-3.268-1.288-3.268-3.757 0-2.425 1.397-3.775 3.268-3.775.89 0 1.702.368 2.302 1.135v-.95h1.947v6.918c0 2.806-2.177 3.497-4.003 3.497-1.258 0-2.256-.292-3.19-1.105M111.458 46.75h1.95v-7.41h-1.95v7.41zm-.183-9.374c0-.645.52-1.15 1.15-1.15.644 0 1.166.505 1.166 1.15 0 .644-.52 1.166-1.165 1.166-.63 0-1.15-.522-1.15-1.166zM115.585 44.892v-3.85h-1.227v-1.703h1.227v-2.026h1.95v2.025h1.502v1.7h-1.503v3.33c0 .476.245.83.674.83.292 0 .567-.108.675-.23l.414 1.487c-.29.26-.812.476-1.625.476-1.366 0-2.087-.706-2.087-2.04M124.667 44.97v-.92c-.322-.43-.935-.662-1.564-.662-.768 0-1.396.414-1.396 1.12 0 .706.628 1.105 1.396 1.105.63 0 1.242-.215 1.564-.644zm0 1.778v-.782c-.506.613-1.38.966-2.347.966-1.18 0-2.562-.798-2.562-2.454 0-1.75 1.38-2.393 2.562-2.393.998 0 1.857.322 2.347.905v-.936c0-.75-.643-1.243-1.626-1.243-.78 0-1.517.31-2.13.876l-.767-1.366c.904-.812 2.07-1.165 3.236-1.165 1.7 0 3.25.675 3.25 2.807v4.786h-1.963zM128.396 36.517h1.95V46.75h-1.95zM142.265 43.665c0-.645-.46-1.166-1.304-1.166h-2.822v2.33h2.823c.814 0 1.305-.428 1.305-1.165zm-.2-4.157c0-.63-.46-1.074-1.197-1.074h-2.73v2.148h2.73c.737 0 1.196-.414 1.196-1.074zm-6.106 7.24v-10.23h5.384c1.948 0 2.946 1.242 2.946 2.606 0 1.274-.8 2.148-1.765 2.348 1.105.168 1.964 1.227 1.964 2.5 0 1.55-1.014 2.776-2.978 2.776h-5.553zM150.933 46.75v-.938c-.507.553-1.395 1.12-2.608 1.12-1.626 0-2.393-.89-2.393-2.33v-5.263h1.95v4.494c0 1.027.536 1.365 1.364 1.365.75 0 1.35-.415 1.687-.844V39.34h1.95v7.41h-1.95zM154.018 45.78l.844-1.41c.552.522 1.64 1.028 2.562 1.028.843 0 1.243-.322 1.243-.782 0-1.21-4.388-.214-4.388-3.13 0-1.242 1.073-2.33 3.036-2.33 1.243 0 2.24.43 2.976 1.012l-.782 1.38c-.445-.46-1.29-.858-2.194-.858-.705 0-1.165.305-1.165.72 0 1.09 4.403.168 4.403 3.16 0 1.365-1.167 2.362-3.222 2.362-1.287 0-2.53-.43-3.312-1.15M161.826 46.75h1.95v-7.41h-1.95v7.41zm-.184-9.374c0-.645.522-1.15 1.152-1.15.643 0 1.165.505 1.165 1.15 0 .644-.523 1.166-1.166 1.166-.63 0-1.152-.522-1.152-1.166zM170.555 46.75v-4.48c0-1.028-.537-1.38-1.364-1.38-.766 0-1.35.428-1.686.857v5.002h-1.95v-7.41h1.95v.95c.474-.553 1.395-1.135 2.592-1.135 1.64 0 2.423.92 2.423 2.362v5.232h-1.965zM177.644 40.75c-1.21 0-1.733.845-1.81 1.58h3.65c-.06-.705-.55-1.58-1.84-1.58m-3.835 2.286c0-2.147 1.595-3.88 3.834-3.88 2.224 0 3.712 1.655 3.712 4.064v.46h-5.507c.138.906.874 1.657 2.132 1.657.628 0 1.488-.26 1.964-.72l.873 1.288c-.737.675-1.902 1.028-3.053 1.028-2.255 0-3.958-1.52-3.958-3.897M181.972 45.78l.843-1.41c.552.522 1.64 1.028 2.563 1.028.843 0 1.242-.322 1.242-.782 0-1.21-4.388-.214-4.388-3.13 0-1.242 1.074-2.33 3.038-2.33 1.242 0 2.24.43 2.976 1.012l-.784 1.38c-.444-.46-1.288-.858-2.192-.858-.706 0-1.167.305-1.167.72 0 1.09 4.403.168 4.403 3.16 0 1.365-1.165 2.362-3.22 2.362-1.29 0-2.532-.43-3.314-1.15M189.98 44.37c.552.522 1.64 1.028 2.562 1.028.844 0 1.243-.322 1.243-.782 0-1.21-4.388-.214-4.388-3.13 0-1.242 1.074-2.33 3.038-2.33 1.242 0 2.24.43 2.976 1.012l-.783 1.38c-.444-.46-1.288-.858-2.192-.858-.706 0-1.167.305-1.167.72 0 1.09 4.403.168 4.403 3.16 0 1.365-1.164 2.362-3.22 2.362-1.29 0-2.53-.43-3.314-1.15l.844-1.412z"/></g></g></svg>
